<svg width="300" height="271" viewBox="0 0 300 271" fill="none" xmlns="http://www.w3.org/2000/svg">
<path fill-rule="evenodd" clip-rule="evenodd" d="M178.302 26.5182C178.302 11.9271 190.22 0.0551758 204.865 0.0551758C219.511 0.0551758 231.429 11.9271 231.429 26.5182C231.429 41.1093 219.511 52.9787 204.865 52.9787C190.22 52.9787 178.302 41.1093 178.302 26.5182ZM199.927 38.7128C197.786 39.1406 194.576 41.4219 192.403 43.9007C195.927 46.4174 200.21 47.9357 204.865 47.9357C209.52 47.9357 213.804 46.4174 217.328 43.9007C215.154 41.4219 211.945 39.1406 209.809 38.7128C207.774 38.3026 206.216 36.8518 205.746 34.9305C205.603 34.3603 205.563 33.5998 205.523 31.9965C205.503 31.1984 205.864 30.4379 206.492 29.9476C207.827 28.907 208.994 27.2337 209.618 25.4676C209.834 24.8497 210.271 24.3618 210.818 24.0718C210.822 24.0514 210.827 24.0299 210.83 24.0078C210.833 23.9923 210.836 23.9764 210.839 23.9604C210.845 23.9243 210.851 23.888 210.858 23.8541C210.424 23.3962 210.161 22.7786 210.161 22.1081C210.171 19.1489 210.176 16.6399 209.109 15.5718C208.406 14.8713 206.991 14.5136 204.9 14.5111C202.74 14.5136 201.324 14.8713 200.624 15.5718C199.555 16.6399 199.56 19.1489 199.57 22.0505C199.57 22.7234 199.307 23.3614 198.868 23.834L198.891 23.9551L198.913 24.0742C199.458 24.3645 199.892 24.8473 200.11 25.4625C200.737 27.231 201.904 28.907 203.239 29.9476C203.867 30.4379 204.228 31.1984 204.208 31.9965C204.168 33.5998 204.128 34.3603 203.985 34.9332C203.515 36.8518 201.957 38.3026 199.927 38.7128ZM210.675 33.7974C214.341 34.4828 218.449 37.5145 221.072 40.4338C224.324 36.6792 226.364 31.8539 226.364 26.5182C226.364 14.7088 216.718 5.09814 204.865 5.09814C193.013 5.09814 183.366 14.7088 183.366 26.5182C183.366 31.8539 185.407 36.6792 188.659 40.4338C191.281 37.5145 195.372 34.4778 198.923 33.7674C199.016 33.6022 199.066 33.3395 199.096 33.027C197.726 31.7086 196.564 30.0278 195.758 28.2041C194.822 27.5337 194.122 26.3456 193.849 24.8347C193.598 23.3287 193.859 21.973 194.506 21.0174C194.516 17.5279 194.73 14.3235 197.038 12.0122C198.745 10.3037 201.292 9.47068 204.82 9.46569C208.442 9.47068 210.986 10.3037 212.693 12.0122C215.011 14.3335 215.215 17.5529 215.225 21.0149C215.872 21.968 216.133 23.3137 215.887 24.8071C215.611 26.3281 214.909 27.5186 213.972 28.1966C213.167 30.0302 211.995 31.7212 210.617 33.0471C210.63 33.3546 210.645 33.6199 210.675 33.7974ZM117.306 82.5183C96.2287 82.5183 79.0812 65.436 79.0812 44.4361C79.0812 23.4389 96.2287 6.35628 117.306 6.35628C138.386 6.35628 155.534 23.4389 155.534 44.4361C155.534 49.6466 154.495 54.6995 152.444 59.4499C146.406 73.4655 132.614 82.5183 117.306 82.5183ZM109.712 61.3484C106.028 62.0888 100.282 66.2163 96.9489 70.4613C102.575 74.8389 109.632 77.4753 117.306 77.4753C124.86 77.4753 131.936 74.8665 137.643 70.4387C134.308 66.2013 128.579 62.0888 124.897 61.3484C122.345 60.8407 120.393 59.0371 119.808 56.6382C119.61 55.8677 119.567 54.6094 119.517 52.6184C119.492 51.818 119.853 50.9875 120.486 50.4921C122.641 48.8086 124.531 46.1121 125.53 43.2804C125.806 42.4923 126.443 41.9146 127.211 41.6945C127.299 41.5093 127.409 41.2192 127.477 40.8313C127.538 40.4761 127.532 40.1861 127.507 39.9861C126.83 39.5282 126.401 38.7551 126.401 37.8949V37.8782C126.411 33.8882 126.419 30.535 125.274 28.4041C124.521 27.001 122.943 25.3875 117.361 25.3775C111.67 25.3875 110.094 27.001 109.341 28.4041C108.195 30.5355 108.204 33.8894 108.214 37.7757V37.7898C108.214 38.6476 107.782 39.4733 107.105 39.9609C107.082 40.166 107.077 40.4761 107.14 40.8764C107.21 41.2367 107.313 41.5144 107.404 41.6945C108.169 41.9146 108.807 42.4923 109.085 43.2804C110.084 46.1121 111.971 48.8086 114.127 50.4921C114.762 50.9875 115.12 51.7477 115.103 52.5482C115.048 54.6094 115.002 55.8677 114.804 56.6558C114.222 59.0371 112.27 60.8407 109.712 61.3484ZM147.794 57.4587C149.571 53.3387 150.469 48.9563 150.469 44.4361C150.469 26.2204 135.593 11.3992 117.306 11.3992C99.0219 11.3992 84.1428 26.2204 84.1428 44.4361C84.1428 53.1937 87.6059 61.1434 93.2073 67.0618C97.368 61.8964 103.878 57.3786 108.719 56.4031C108.949 56.3556 109.717 56.1529 109.891 55.4474C109.958 55.0847 109.988 54.3968 110.008 53.6215C107.818 51.6378 105.968 48.9912 104.759 46.1145C103.496 45.3467 102.528 43.7807 102.151 41.732C101.805 39.6132 102.201 37.7922 103.15 36.6465C103.155 32.6466 103.293 28.9745 104.871 26.0279C106.924 22.2081 110.967 20.342 117.244 20.3345C123.645 20.342 127.691 22.2081 129.743 26.0279C131.329 28.9946 131.462 32.6943 131.462 36.6441C132.413 37.7871 132.812 39.5982 132.466 41.6894C132.092 43.7656 131.116 45.3392 129.856 46.1121C128.644 48.9912 126.795 51.6354 124.606 53.6215C124.624 54.4118 124.654 55.0898 124.729 55.4549C124.897 56.1529 125.663 56.3556 125.891 56.4031C130.729 57.3762 137.232 61.8862 141.392 67.0417C144.01 64.2752 146.231 61.0884 147.794 57.4587ZM224.678 53.8719C225.81 53.0564 226.068 51.478 225.247 50.35L224.951 49.9396C224.128 48.8064 222.547 48.5614 221.415 49.3742C220.284 50.1897 220.025 51.7683 220.846 52.8964L221.142 53.3041C221.636 53.9869 222.414 54.3496 223.195 54.3496C223.709 54.3496 224.229 54.1946 224.678 53.8719ZM229.421 62.937C228.637 62.937 227.862 62.577 227.368 61.8939L227.072 61.4838C226.251 60.3555 226.507 58.7771 227.639 57.9616C228.768 57.1461 230.349 57.3938 231.175 58.5294L231.471 58.9371C232.294 60.0654 232.035 61.6438 230.904 62.4593C230.454 62.782 229.935 62.937 229.421 62.937ZM191.946 62.7569C192.177 62.8419 192.421 62.8794 192.662 62.8794C193.776 62.8794 194.877 62.0615 195.259 60.9785C195.723 59.6676 195.03 58.2267 193.71 57.7614C192.39 57.3086 190.947 57.9916 190.481 59.3049L190.312 59.7802C189.848 61.0935 190.624 62.2942 191.946 62.7569ZM186.754 69.7642L186.922 69.2889C187.386 67.9756 188.83 67.2902 190.149 67.7453C191.469 68.2083 192.162 69.6492 191.698 70.9622C191.316 72.0455 190.215 72.8609 189.103 72.8609C188.86 72.8609 188.619 72.8258 188.385 72.7409C187.065 72.2782 186.287 71.0775 186.754 69.7642ZM32.8329 117.126C31.4627 117.396 30.5744 118.725 30.8455 120.091L30.9434 120.586C31.1817 121.787 32.2407 122.617 33.4203 122.617C33.5884 122.617 33.754 122.602 33.9221 122.567C35.2899 122.297 36.1806 120.969 35.9096 119.6L35.8092 119.108C35.5382 117.737 34.1781 116.841 32.8329 117.126ZM32.9359 130.479C32.6649 129.11 33.5558 127.785 34.9234 127.512C36.2635 127.224 37.6286 128.12 37.9021 129.493L38 129.988C38.2711 131.354 37.3828 132.682 36.0126 132.952C35.8445 132.988 35.6812 133.003 35.5131 133.003C34.3312 133.003 33.2721 132.172 33.0363 130.974L32.9359 130.479ZM35.1216 141.36L35.0237 140.865C34.7526 139.499 35.6409 138.171 37.0111 137.901C38.3663 137.625 39.7166 138.511 39.9874 139.879L40.088 140.375C40.3588 141.743 39.4681 143.068 38.0979 143.341C37.9298 143.374 37.7666 143.389 37.5985 143.389C36.4189 143.389 35.3599 142.561 35.1216 141.36ZM179.632 89.7254L179.8 89.2501C180.267 87.9392 181.71 87.2564 183.03 87.7089C184.35 88.1719 185.042 89.6128 184.578 90.926C184.197 92.0067 183.095 92.8245 181.981 92.8245C181.74 92.8245 181.496 92.787 181.266 92.7045C179.945 92.2418 179.168 91.0384 179.632 89.7254ZM183.361 79.269L183.193 79.7443C182.729 81.0551 183.504 82.2583 184.824 82.7212C185.057 82.8062 185.298 82.8413 185.542 82.8413C186.654 82.8413 187.758 82.0232 188.137 80.9426C188.603 79.6293 187.911 78.1884 186.591 77.7257C185.271 77.2729 183.825 77.956 183.361 79.269ZM253.234 161.725L253.283 161.222C253.421 159.834 254.687 158.861 256.052 158.958C257.441 159.096 258.462 160.329 258.326 161.715L258.277 162.218C258.148 163.521 257.046 164.494 255.761 164.494C255.676 164.494 255.593 164.489 255.508 164.482C254.118 164.346 253.101 163.113 253.234 161.725ZM256.773 153.698C258.09 153.698 259.236 152.475 259.355 151.149C259.477 149.763 258.452 148.537 257.055 148.415C255.736 148.265 254.437 149.313 254.31 150.706L254.267 151.207C254.143 152.592 255.197 153.568 256.586 153.688C256.608 153.691 256.633 153.693 256.654 153.694C256.696 153.697 256.737 153.698 256.773 153.698ZM235.639 71.5295C234.859 71.5295 234.083 71.1668 233.589 70.484L233.293 70.0763C232.47 68.948 232.728 67.3696 233.86 66.5541C234.992 65.7362 236.575 65.9863 237.396 67.1195L237.692 67.5296C238.513 68.6579 238.257 70.2363 237.125 71.0518C236.673 71.3745 236.154 71.5295 235.639 71.5295ZM136.576 205.638C136.857 205.761 137.153 205.818 137.449 205.818C138.508 205.818 139.572 205.105 140.012 204.11C140.571 202.834 139.991 201.348 138.712 200.788C137.442 200.245 135.939 200.81 135.374 202.086L135.171 202.546C134.611 203.822 135.294 205.078 136.576 205.638ZM130.925 212.265L131.126 211.799C131.69 210.521 133.188 209.951 134.458 210.496C135.741 211.051 136.323 212.54 135.766 213.815L135.563 214.278C135.146 215.226 134.217 215.794 133.244 215.794C132.902 215.794 132.561 215.727 132.23 215.584C130.947 215.024 130.365 213.54 130.925 212.265ZM90.8377 223.051C91.5555 223.051 92.2709 222.748 92.7703 222.158C93.6761 221.097 93.5432 219.506 92.4739 218.603L92.0902 218.278C91.0211 217.383 89.6208 217.668 88.7123 218.738C87.8063 219.801 88.1325 221.555 89.2015 222.456C89.6759 222.856 90.2606 223.051 90.8377 223.051ZM81.0687 215.634C79.9996 214.732 79.6732 212.978 80.5792 211.917C81.4877 210.847 82.888 210.561 83.9546 211.457L84.3411 211.782C85.4101 212.683 85.5429 214.274 84.6372 215.334C84.1377 215.927 83.4224 216.23 82.7049 216.23C82.1251 216.23 81.5428 216.032 81.0687 215.634ZM56.7057 71.7346L56.2515 71.9598C54.9991 72.5777 54.4846 74.0909 55.1021 75.3393C55.5437 76.2299 56.4422 76.7427 57.3732 76.7427C57.7546 76.7427 58.1335 76.6601 58.4949 76.4824L58.9492 76.2572C60.2013 75.6393 60.7158 74.1285 60.0959 72.8779C59.4787 71.6247 57.9453 71.1218 56.7057 71.7346ZM65.7556 67.2369L66.2098 67.0117C67.4595 66.3962 68.9777 66.8916 69.6051 68.1398C70.2301 69.3855 69.7256 70.9014 68.4734 71.5244L68.0192 71.7496C67.6529 71.9295 67.2662 72.0171 66.8872 72.0171C65.9613 72.0171 65.0679 71.5067 64.6212 70.6213C63.9989 69.3756 64.5034 67.8623 65.7556 67.2369ZM74.3682 65.781C74.7923 66.634 75.7484 67.0868 76.7122 67.0868C77.1514 67.0868 77.593 66.9916 77.9869 66.7965C79.2391 66.1737 79.7436 64.6602 79.1186 63.4121C78.4864 62.1637 76.983 61.6661 75.7233 62.2838L75.2715 62.5089C74.0218 63.1319 73.7408 64.5353 74.3682 65.781ZM90.2004 91.6318C90.8428 90.3912 92.3863 89.921 93.6107 90.5464C94.8529 91.1868 95.3424 92.7076 94.6999 93.9458L94.4665 94.3935C94.0173 95.2615 93.1315 95.7593 92.2179 95.7593C91.8215 95.7593 91.4275 95.6693 91.0561 95.4792C89.8139 94.8388 89.3245 93.318 89.9669 92.0798L90.2004 91.6318ZM65.6698 144.867C66.0412 145.057 66.4352 145.147 66.8316 145.147C67.7476 145.147 68.6311 144.652 69.0826 143.784L69.3136 143.336C69.9561 142.096 69.4666 140.577 68.2271 139.937C66.9997 139.307 65.4614 139.779 64.8141 141.02L64.5831 141.468C63.9382 142.708 64.4276 144.227 65.6698 144.867ZM74.9548 121.284C75.5846 120.033 77.1055 119.54 78.3579 120.171C79.6025 120.799 80.107 122.317 79.4745 123.56C79.0052 124.488 77.9663 125.128 76.9524 125.128C76.6112 125.128 76.275 125.056 75.9587 124.898C74.7138 124.268 74.0966 122.975 74.7289 121.731L74.9548 121.284ZM69.8937 131.147L69.6602 131.598C69.018 132.836 69.5123 134.357 70.7545 134.995C71.1235 135.182 71.5199 135.273 71.9115 135.273C72.8248 135.273 73.7157 134.772 74.1598 133.902L74.3932 133.451C75.0357 132.213 74.5414 130.692 73.2992 130.054C72.0645 129.424 70.5262 129.907 69.8937 131.147ZM89.3898 104.269C88.9431 105.139 88.0548 105.637 87.1388 105.637C86.7499 105.637 86.3533 105.549 85.9819 105.359C84.7421 104.722 84.2478 103.203 84.8903 101.962L85.1213 101.512C85.756 100.271 87.2867 99.7834 88.5289 100.421C89.7687 101.059 90.2657 102.578 89.6208 103.818L89.3898 104.269ZM81.0383 115.02C81.3543 115.178 81.6907 115.253 82.032 115.253C83.0459 115.253 84.0848 114.613 84.5541 113.682C85.1864 112.439 84.6821 110.923 83.4348 110.293C82.1901 109.665 80.6618 110.157 80.0344 111.408L79.8061 111.856C79.1735 113.099 79.791 114.392 81.0383 115.02ZM95.277 81.7529C95.922 80.5123 97.4629 80.0394 98.6901 80.6697C99.9323 81.3101 100.421 82.8285 99.7766 84.0693L99.5458 84.517C99.0965 85.385 98.2108 85.8804 97.2948 85.8804C96.9009 85.8804 96.5042 85.7904 96.1328 85.6003C94.8933 84.9599 94.4038 83.4415 95.0463 82.2006L95.277 81.7529ZM90.273 167.163C88.938 167.566 88.1775 168.974 88.5841 170.307C88.9103 171.398 89.9191 172.103 91.0058 172.103C91.2492 172.103 91.4902 172.068 91.7384 171.996L92.2228 171.851C93.558 171.45 94.0773 170.115 93.671 168.779C93.2694 167.446 91.6333 166.77 90.273 167.163ZM101.192 169.069C100.103 169.069 99.0965 168.364 98.7676 167.273C98.3636 165.94 99.1239 164.531 100.459 164.129C101.819 163.744 103.455 164.411 103.857 165.745C104.263 167.081 103.744 168.416 102.409 168.817L101.925 168.962C101.676 169.034 101.435 169.069 101.192 169.069ZM216.911 122.292C215.629 122.84 215.037 124.326 215.591 125.604C216 126.56 216.936 127.13 217.915 127.13C218.251 127.13 218.592 127.062 218.919 126.922L219.383 126.722C220.663 126.174 221.024 124.789 220.47 123.508C219.923 122.227 218.191 121.732 216.911 122.292ZM208.293 85.818C207.96 85.818 207.626 85.7528 207.297 85.6153L206.828 85.4151C205.543 84.8698 204.946 83.389 205.493 82.1057C206.042 80.8249 207.515 80.2322 208.815 80.775L209.287 80.975C210.572 81.5229 211.169 83.0013 210.622 84.2846C210.211 85.2427 209.277 85.818 208.293 85.818ZM219.066 85.1555L218.602 84.9555C217.305 84.4076 216.06 85.093 215.505 86.3712C214.953 87.6521 215.779 89.238 217.059 89.7856C217.385 89.9258 217.726 89.9934 218.062 89.9934C219.041 89.9934 219.975 89.4229 220.386 88.4675C220.941 87.1891 220.346 85.7059 219.066 85.1555ZM200.84 80.1196C200.431 81.0752 199.495 81.6454 198.516 81.6454C198.18 81.6454 197.839 81.5779 197.513 81.4379C196.233 80.89 195.407 79.3041 195.959 78.0233C196.509 76.7451 197.766 76.0596 199.056 76.6076L199.52 76.8076C200.8 77.3555 201.395 78.8414 200.84 80.1196ZM170.989 64.6205C169.699 64.0728 168.445 64.7583 167.895 66.0364C167.34 67.3173 168.166 68.9005 169.448 69.4509C169.774 69.5911 170.116 69.656 170.45 69.656C171.431 69.656 172.364 69.0857 172.776 68.1327C173.328 66.8543 172.736 65.3684 171.453 64.8207L170.989 64.6205ZM160.675 65.4834C160.339 65.4834 159.998 65.4183 159.672 65.2781C158.392 64.7278 157.566 63.1445 158.118 61.8637C158.673 60.5879 159.925 59.895 161.215 60.448L161.679 60.648C162.959 61.1959 163.554 62.6816 162.999 63.96C162.59 64.9154 161.654 65.4834 160.675 65.4834ZM108.801 148.647C108.801 177.491 132.358 200.96 161.307 200.96C190.26 200.96 213.814 177.491 213.814 148.647C213.814 119.8 190.26 96.3339 161.307 96.3339C132.358 96.3339 108.801 119.8 108.801 148.647ZM131.38 185.139L131.423 185.109C131.487 185.065 131.551 185.021 131.602 184.956C136.398 178.574 144.868 172.463 150.474 171.335C153.663 170.702 156.098 168.464 156.823 165.504C157.066 164.531 157.124 162.87 157.209 159.979C157.23 159.176 156.868 158.41 156.236 157.917C153.066 155.448 150.301 151.504 148.843 147.361C148.521 146.451 147.721 145.82 146.795 145.695C146.579 145.402 146.248 144.75 146.075 143.822C145.917 142.843 146.014 142.106 146.123 141.76C146.983 141.315 147.563 140.35 147.563 139.356C147.548 133.766 147.538 128.94 149.259 125.724C150.351 123.682 152.78 120.966 161.388 120.951C169.827 120.966 172.262 123.68 173.353 125.719C175.073 128.918 175.065 133.717 175.055 139.424L175.054 139.489C175.054 140.482 175.632 141.36 176.498 141.77C176.603 142.123 176.701 142.846 176.543 143.782C176.37 144.745 176.033 145.4 175.82 145.695C174.897 145.82 174.096 146.451 173.775 147.361C172.314 151.504 169.551 155.448 166.382 157.917C165.749 158.41 165.388 159.171 165.408 159.971C165.481 162.75 165.546 164.506 165.792 165.494C166.52 168.464 168.952 170.702 172.131 171.335C177.74 172.463 186.214 178.574 191.015 184.956C191.066 185.022 191.13 185.071 191.193 185.12C191.223 185.143 191.252 185.166 191.28 185.19C191.293 185.201 191.304 185.212 191.316 185.223C183.135 191.9 172.686 195.915 161.307 195.915C149.924 195.915 139.472 191.895 131.289 185.213C131.317 185.186 131.348 185.162 131.38 185.139ZM208.752 148.647C208.752 161.585 203.497 173.319 195.015 181.864C189.469 174.537 179.875 167.748 173.125 166.39C171.875 166.142 170.969 165.359 170.708 164.289C170.61 163.853 170.545 162.382 170.505 161.062C173.7 158.278 176.385 154.455 178.076 150.285C179.727 149.435 181.037 147.389 181.532 144.64C181.996 141.845 181.434 139.472 180.119 138.126C180.121 132.577 179.983 127.377 177.823 123.342C175.142 118.352 169.774 115.92 161.215 115.905C152.838 115.92 147.462 118.354 144.787 123.35C142.642 127.359 142.494 132.517 142.494 138.128C141.189 139.476 140.624 141.858 141.086 144.679C141.585 147.401 142.89 149.435 144.541 150.285C146.233 154.455 148.918 158.278 152.113 161.059C152.068 162.38 152.007 163.861 151.909 164.296C151.646 165.359 150.743 166.142 149.48 166.39C142.732 167.748 133.143 174.537 127.602 181.864C119.118 173.319 113.865 161.585 113.865 148.647C113.865 122.584 135.146 101.379 161.307 101.379C187.469 101.379 208.752 122.584 208.752 148.647ZM261.158 66.1592C240.086 66.1592 222.938 83.2442 222.938 104.241C222.938 125.241 240.086 142.326 261.158 142.326C282.237 142.326 299.386 125.241 299.386 104.241C299.386 83.2442 282.237 66.1592 261.158 66.1592ZM240.804 130.267C244.13 126.024 249.88 121.897 253.574 121.156C256.132 120.644 258.08 118.837 258.661 116.443C258.855 115.661 258.904 114.375 258.96 112.354C258.977 111.553 258.62 110.79 257.983 110.295C255.829 108.614 253.941 105.92 252.943 103.083C252.663 102.298 252.027 101.72 251.26 101.497C251.17 101.317 251.063 101.042 250.997 100.672C250.934 100.279 250.939 99.9713 250.966 99.7689C251.634 99.281 252.066 98.4631 252.066 97.605V97.5915C252.056 93.7049 252.047 90.3457 253.193 88.2121C253.946 86.8063 255.522 85.1928 261.219 85.1829C266.803 85.1928 268.377 86.8063 269.13 88.2121C270.276 90.3454 270.267 93.7035 270.257 97.6837V97.7002C270.257 98.558 270.687 99.3311 271.365 99.7888C271.384 99.989 271.389 100.281 271.328 100.644C271.263 101.03 271.151 101.315 271.063 101.497C270.298 101.722 269.657 102.298 269.383 103.083C268.384 105.92 266.494 108.614 264.337 110.295C263.706 110.79 263.344 111.553 263.363 112.354C263.419 114.375 263.47 115.661 263.66 116.443C264.245 118.837 266.193 120.644 268.749 121.156C272.443 121.897 278.19 126.024 281.518 130.267C275.892 134.644 268.836 137.281 261.158 137.281C253.485 137.281 246.431 134.647 240.804 130.267ZM285.261 126.865C281.1 121.699 274.593 117.181 269.749 116.211C269.516 116.163 268.749 115.958 268.581 115.273C268.511 114.908 268.481 114.212 268.46 113.427C270.646 111.441 272.497 108.799 273.709 105.922C274.974 105.147 275.948 103.571 276.317 101.5C276.67 99.4062 276.276 97.5951 275.319 96.4494C275.319 92.4996 275.185 88.8 273.599 85.8381C271.547 82.0135 267.502 80.1474 261.095 80.1373C254.818 80.1474 250.776 82.0135 248.724 85.8381C247.145 88.7823 247.006 92.457 247.001 96.4518C246.054 97.5975 245.658 99.4185 246.008 101.53C246.38 103.584 247.349 105.152 248.617 105.925C249.826 108.799 251.675 111.441 253.866 113.427C253.842 114.21 253.815 114.9 253.747 115.253C253.574 115.958 252.807 116.163 252.576 116.211C247.733 117.181 241.22 121.699 237.059 126.867C231.461 120.949 228 112.997 228 104.241C228 86.0257 242.875 71.2046 261.158 71.2046C279.446 71.2046 294.321 86.0257 294.321 104.241C294.321 112.997 290.86 120.946 285.261 126.865ZM46.0809 221.079C25.0059 221.079 7.85834 203.994 7.85834 182.997C7.85834 162 25.0059 144.915 46.0809 144.915C67.1581 144.915 84.3058 162 84.3058 182.997C84.3058 203.994 67.1581 221.079 46.0809 221.079ZM38.4894 199.912C34.8005 200.652 29.0563 204.777 25.7237 209.02C31.35 213.397 38.4042 216.034 46.0809 216.034C53.7549 216.034 60.8091 213.4 66.4354 209.022C63.1052 204.777 57.3586 200.652 53.6697 199.912C51.1124 199.399 49.165 197.593 48.5828 195.199C48.3846 194.429 48.3394 193.168 48.2891 191.177C48.2641 190.379 48.6255 189.546 49.2578 189.051C51.416 187.37 53.3031 184.673 54.3019 181.839C54.5806 181.053 55.2179 180.476 55.9782 180.255C56.0737 180.07 56.1815 179.783 56.2517 179.39C56.3095 179.032 56.3044 178.745 56.2794 178.547C55.602 178.087 55.1728 177.314 55.1728 176.456V176.439C55.1827 172.447 55.1912 169.093 54.0459 166.965C53.2932 165.559 51.7172 163.946 46.1336 163.936C40.4419 163.946 38.8659 165.559 38.1132 166.965C36.9676 169.094 36.9761 172.448 36.9863 176.334V176.348C36.9863 177.209 36.5571 178.034 35.8797 178.522C35.8544 178.725 35.8496 179.035 35.9147 179.435C35.9824 179.798 36.0878 180.075 36.1758 180.255C36.9412 180.476 37.581 181.053 37.8572 181.839C38.856 184.673 40.7455 187.37 42.9013 189.051C43.5336 189.546 43.895 190.306 43.8748 191.107C43.8197 193.168 43.7745 194.429 43.5787 195.217C42.9941 197.593 41.0467 199.399 38.4894 199.912ZM79.244 182.997C79.244 164.779 64.3652 149.958 46.0809 149.958C27.7939 149.958 12.92 164.779 12.92 182.997C12.92 191.752 16.3807 199.702 21.9794 205.62C26.1402 200.452 32.6525 195.937 37.4906 194.964C37.724 194.919 38.4894 194.714 38.6626 194.006C38.7328 193.646 38.7605 192.958 38.7807 192.183C36.5897 190.196 34.7429 187.55 33.5308 184.673C32.2684 183.903 31.2997 182.339 30.9232 180.293C30.5795 178.177 30.9735 176.356 31.9221 175.207C31.9272 171.208 32.0676 167.533 33.6435 164.586C35.6963 160.766 39.7418 158.903 46.0155 158.893C52.4199 158.903 56.4626 160.766 58.5153 164.586C60.1015 167.553 60.237 171.255 60.237 175.205C61.1856 176.348 61.582 178.159 61.2407 180.248C60.8642 182.322 59.8907 183.898 58.6283 184.671C57.4237 187.55 55.5692 190.194 53.3784 192.183C53.3986 192.973 53.426 193.648 53.5013 194.013C53.6697 194.714 54.4351 194.919 54.6682 194.964C59.5093 195.937 66.0189 200.455 70.1796 205.62C75.7809 199.702 79.244 191.752 79.244 182.997ZM119.418 270.95C134.064 270.95 145.974 259.079 145.974 244.489C145.974 229.897 134.064 218.028 119.418 218.028C104.77 218.028 92.8553 229.897 92.8553 244.489C92.8553 259.079 104.77 270.95 119.418 270.95ZM106.954 261.873C109.127 259.391 112.332 257.11 114.462 256.682C116.51 256.278 118.073 254.825 118.527 252.931C118.681 252.331 118.711 251.532 118.761 249.977C118.784 249.176 118.425 248.409 117.785 247.915C116.45 246.876 115.283 245.203 114.66 243.438C114.442 242.82 114.008 242.334 113.463 242.043C113.448 241.966 113.436 241.881 113.421 241.803C113.86 241.331 114.121 240.692 114.121 240.02C114.111 237.119 114.106 234.61 115.175 233.541C115.877 232.841 117.29 232.483 119.451 232.481C121.539 232.483 122.952 232.841 123.654 233.541C124.723 234.61 124.719 237.119 124.708 240.078C124.708 240.748 124.97 241.365 125.406 241.825C125.396 241.895 125.381 241.973 125.366 242.043C124.821 242.334 124.387 242.82 124.169 243.438C123.547 245.203 122.38 246.876 121.045 247.915C120.407 248.409 120.056 249.37 120.076 250.174C120.119 251.532 120.149 252.331 120.292 252.89C120.759 254.825 122.319 256.278 124.362 256.682C126.495 257.11 129.705 259.391 131.881 261.871C128.357 264.386 124.074 265.907 119.418 265.907C114.763 265.907 110.48 264.386 106.954 261.873ZM119.418 223.07C131.271 223.07 140.912 232.678 140.912 244.489C140.912 249.823 138.872 254.648 135.622 258.403C133.002 255.488 128.894 252.452 125.223 251.752C125.198 251.58 125.178 251.329 125.168 251.016C126.548 249.692 127.72 248.002 128.525 246.171C129.459 245.496 130.162 244.3 130.435 242.777C130.681 241.283 130.42 239.938 129.773 238.985C129.763 235.523 129.559 232.301 127.241 229.982C125.534 228.274 122.987 227.44 119.368 227.436C115.842 227.44 113.295 228.274 111.591 229.982C109.28 232.291 109.069 235.498 109.059 238.987C108.412 239.943 108.148 241.295 108.402 242.803C108.673 244.314 109.37 245.501 110.309 246.174C111.109 247.997 112.271 249.677 113.647 250.999C113.616 251.307 113.569 251.563 113.468 251.738C109.915 252.45 105.827 255.486 103.21 258.403C99.9571 254.648 97.9193 249.823 97.9193 244.489C97.9193 232.678 107.566 223.07 119.418 223.07ZM225.451 197.689C225.451 212.282 237.366 224.154 252.01 224.154C266.657 224.154 278.569 212.282 278.569 197.689C278.569 183.098 266.657 171.228 252.01 171.228C237.366 171.228 225.451 183.098 225.451 197.689ZM239.549 215.074C241.717 212.595 244.927 210.313 247.057 209.883C249.105 209.478 250.667 208.025 251.123 206.134C251.277 205.533 251.303 204.733 251.354 203.179C251.379 202.376 251.017 201.608 250.38 201.116C249.044 200.075 247.878 198.404 247.256 196.638C247.038 196.025 246.603 195.537 246.059 195.247L246.013 195.004C246.455 194.532 246.717 193.894 246.717 193.221C246.705 190.319 246.7 187.813 247.769 186.742C248.471 186.042 249.885 185.684 252.047 185.682C254.133 185.684 255.547 186.042 256.249 186.742C257.318 187.813 257.31 190.319 257.303 193.281C257.303 193.954 257.565 194.572 258 195.03C257.995 195.052 257.993 195.076 257.988 195.1C257.981 195.148 257.971 195.199 257.966 195.247C257.417 195.535 256.98 196.023 256.764 196.638C256.139 198.404 254.974 200.075 253.638 201.116C253.001 201.608 252.649 202.572 252.668 203.374C252.715 204.733 252.744 205.533 252.892 206.101C253.361 208.03 254.925 209.481 256.958 209.883C259.091 210.313 262.299 212.592 264.473 215.074C260.954 217.59 256.667 219.109 252.01 219.109C247.356 219.109 243.071 217.59 239.549 215.074ZM273.505 197.689C273.505 203.024 271.467 207.852 268.214 211.604C265.601 208.69 261.493 205.656 257.815 204.953C257.794 204.78 257.774 204.533 257.762 204.22C259.142 202.892 260.313 201.201 261.121 199.367C262.054 198.689 262.756 197.499 263.033 195.965C263.276 194.482 263.009 193.141 262.365 192.193C262.355 188.726 262.151 185.502 259.834 183.185C258.129 181.474 255.583 180.641 251.964 180.639C248.437 180.641 245.891 181.474 244.184 183.185C241.875 185.491 241.662 188.698 241.652 192.191C241.004 193.146 240.744 194.497 240.994 196.008C241.268 197.516 241.966 198.702 242.899 199.377C243.705 201.198 244.866 202.879 246.241 204.203C246.212 204.508 246.161 204.768 246.064 204.938C242.51 205.656 238.42 208.69 235.805 211.604C232.552 207.85 230.512 203.024 230.512 197.689C230.512 185.882 240.159 176.274 252.01 176.274C263.864 176.274 273.505 185.882 273.505 197.689ZM53.7722 89.2121C53.7722 103.803 41.8621 115.673 27.2165 115.673C12.571 115.673 0.65332 103.803 0.65332 89.2121C0.65332 74.6209 12.571 62.7465 27.2165 62.7465C41.8621 62.7465 53.7722 74.6209 53.7722 89.2121ZM22.2602 101.404C20.1297 101.834 16.925 104.116 14.7543 106.595C18.2777 109.109 22.5614 110.627 27.2165 110.627C31.8691 110.627 36.1529 109.109 39.6763 106.595C37.503 104.116 34.296 101.834 32.1603 101.404C30.1226 100.996 28.5666 99.5457 28.0949 97.6196C27.9467 97.0191 27.9142 96.1811 27.8741 94.7528C27.8488 93.9473 28.2103 93.1267 28.8428 92.6316C30.1778 91.5984 31.3447 89.9249 31.967 88.1588C32.1854 87.5436 32.6194 87.0557 33.1691 86.7681C33.1791 86.693 33.1941 86.6179 33.2092 86.5429C32.7727 86.0853 32.5116 85.4698 32.5116 84.802C32.5215 78.6458 32.3335 77.21 27.2518 77.2001C23.4438 77.2076 22.8186 78.361 22.5811 78.7995L22.579 78.8034C21.9139 80.0477 21.9163 82.2851 21.9189 84.6616L21.9189 84.742C21.9189 85.4124 21.658 86.0502 21.2188 86.523C21.2339 86.6029 21.2489 86.6882 21.2614 86.7681C21.806 87.0584 22.2427 87.5436 22.4585 88.1588C23.0834 89.9224 24.2502 91.596 25.5854 92.634C26.2228 93.1294 26.584 93.8974 26.559 94.7003C26.509 96.2462 26.4788 97.0365 26.3358 97.622C25.8665 99.5481 24.3029 100.996 22.2602 101.404ZM48.7106 89.2121C48.7106 77.4 39.069 67.7921 27.2165 67.7921C15.3641 67.7921 5.71751 77.4 5.71751 89.2121C5.71751 94.5451 7.75525 99.3704 11.0076 103.125C13.6275 100.208 17.718 97.1716 21.2665 96.4588C21.3668 96.2961 21.4171 96.031 21.4446 95.7208C20.072 94.3976 18.91 92.7166 18.102 90.8955C17.1684 90.2176 16.4708 89.037 16.1998 87.5286C15.9463 86.0226 16.2148 84.6693 16.8573 83.7139C16.8673 81.0171 16.9903 78.5233 18.112 76.432C19.6453 73.5629 22.6066 72.1646 27.1663 72.1571C36.9208 72.1745 37.5407 78.5233 37.5759 83.6812C38.2232 84.6243 38.4843 85.97 38.2383 87.486C37.9597 89.0145 37.2572 90.205 36.3286 90.8856C35.518 92.7216 34.3511 94.41 32.9658 95.7383C32.9809 96.0484 32.9959 96.3087 33.0261 96.4862C36.6949 97.1767 40.8004 100.208 43.4204 103.123C46.6728 99.3704 48.7106 94.5451 48.7106 89.2121Z" fill="url(#paint0_linear_16_1925)"/>
<defs>
<linearGradient id="paint0_linear_16_1925" x1="150.02" y1="0.0551758" x2="150.02" y2="270.95" gradientUnits="userSpaceOnUse">
<stop stop-color="#6633CC"/>
<stop offset="1" stop-color="#110C24"/>
</linearGradient>
</defs>
</svg>
