<svg width="185" height="249" viewBox="0 0 185 249" fill="none" xmlns="http://www.w3.org/2000/svg">
<path fill-rule="evenodd" clip-rule="evenodd" d="M41.1914 193.351C41.1675 193.375 41.1197 193.399 41.0719 193.447C39.4704 194.741 38.4172 196.633 38.2027 198.693C37.964 200.777 38.5603 202.835 39.8758 204.464C40.4977 205.232 41.2628 205.878 42.1013 206.381C41.1675 206.667 40.2831 207.123 39.518 207.745C37.8926 209.04 36.8633 210.931 36.6249 213.015C36.4082 215.075 37.0064 217.133 38.298 218.762C39.2299 219.913 40.4501 220.776 41.8132 221.254C40.3785 221.421 38.9915 221.996 37.8429 222.931C36.2412 224.224 35.1901 226.117 34.9735 228.175C34.735 230.235 35.3571 232.319 36.6487 233.947C37.5329 235.026 38.6577 235.864 39.9494 236.342C40.3546 237.254 40.8574 238.117 41.5033 238.882C43.4646 241.372 46.3341 242.952 49.4656 243.288C60.9693 244.557 81.1545 246.762 92.5608 248.031C96.9383 248.509 101.004 246.546 103.419 243.242C104.686 243.001 105.882 242.474 106.91 241.636C108.513 240.344 109.565 238.451 109.779 236.39C109.996 234.307 109.398 232.247 108.106 230.618C107.198 229.469 105.978 228.63 104.615 228.126C106.049 227.959 107.413 227.386 108.561 226.474C110.187 225.158 111.214 223.267 111.43 221.207C111.669 219.147 111.071 217.061 109.755 215.433C109.133 214.667 108.368 214.022 107.532 213.542C108.464 213.254 109.35 212.776 110.115 212.152C111.741 210.86 112.77 208.968 113.008 206.908C113.223 204.824 112.627 202.764 111.335 201.135C111.287 201.087 111.264 201.063 111.238 201.016C141.42 190.814 164.592 163.726 168.3 129.788C173.393 83.2772 140.007 41.3862 93.8046 36.3329C47.6018 31.2559 5.94146 64.906 0.872274 111.443C-2.85957 145.379 13.9297 176.849 41.1914 193.351ZM103.371 235.671C103.323 236.056 103.156 236.365 102.868 236.606C102.582 236.845 102.222 236.94 101.865 236.894C89.4051 235.53 55.0397 231.769 42.6022 230.404C42.2444 230.379 41.9085 230.186 41.6701 229.901C41.4556 229.613 41.3364 229.254 41.3839 228.894C41.4078 228.511 41.5987 228.175 41.8848 227.959C42.1729 227.722 42.5306 227.625 42.8903 227.65C55.3496 229.015 89.7152 232.799 102.151 234.163C102.51 234.186 102.844 234.379 103.085 234.667C103.299 234.954 103.419 235.312 103.371 235.671ZM105.02 220.513C104.996 220.871 104.805 221.207 104.519 221.444C104.231 221.662 103.873 221.757 103.514 221.734C91.0544 220.367 56.7129 216.607 44.2534 215.242C43.8939 215.196 43.5599 215.003 43.3433 214.715C43.1048 214.43 43.0095 214.068 43.0334 213.709C43.081 213.351 43.2718 213.015 43.5599 212.776C43.8222 212.56 44.2058 212.439 44.5635 212.488C56.9988 213.852 91.3663 217.613 103.802 218.98C104.183 219.026 104.519 219.193 104.734 219.483C104.972 219.769 105.068 220.152 105.02 220.513ZM106.6 206.19C106.552 206.572 106.383 206.908 106.097 207.123C105.811 207.363 105.427 207.459 105.068 207.411C92.6322 206.069 58.2668 202.284 45.8312 200.92C45.4497 200.896 45.1377 200.706 44.8993 200.417C44.6588 200.131 44.5635 199.771 44.611 199.411C44.611 199.387 44.611 199.387 44.611 199.387C44.6349 199.029 44.8277 198.693 45.1138 198.478C45.4 198.237 45.7598 198.142 46.1193 198.19C58.5788 199.53 92.9203 203.314 105.38 204.681C105.737 204.705 106.073 204.895 106.312 205.184C106.528 205.47 106.624 205.83 106.6 206.19ZM48.6529 190.215L105.02 196.394C105.332 196.153 105.666 195.986 106.049 195.891C135.465 187.316 158.351 161.618 161.89 129.094C166.601 86.127 135.775 47.4217 93.0873 42.7523C50.4235 38.057 11.9684 69.1697 7.25695 112.137C3.67017 144.971 20.841 175.318 48.1761 189.879C48.3667 189.975 48.5098 190.094 48.6529 190.215Z" fill="url(#paint0_linear_228_356)" fill-opacity="0.18"/>
<path fill-rule="evenodd" clip-rule="evenodd" d="M85.6736 142.482C82.8995 143.489 79.744 143.656 76.8488 142.027C78.1404 140.446 79.2173 138.555 79.9825 136.351C80.8429 133.812 80.8429 130.268 79.6944 127.514C78.2835 124.161 75.4618 121.789 70.9906 122.437C68.6935 122.771 66.6606 124.471 65.5617 127.345C64.2225 130.89 64.4132 136.59 67.4038 141.5C66.9965 141.717 66.5892 141.908 66.2077 142.075C65.9433 142.194 65.681 142.291 65.4186 142.411C64.9399 141.068 64.461 139.871 63.9602 138.841C62.4281 135.753 60.6835 132.279 58.41 130.004C56.4031 127.993 54.0105 126.82 51.1888 126.939C48.7011 127.058 46.549 128.544 45.2334 130.914C43.6078 133.764 43.2722 137.885 44.7803 141.068C46.1197 143.92 49.1084 147.321 52.409 149.212C55.1115 150.745 57.981 151.272 60.4668 150.433C60.6357 150.385 60.8741 150.314 61.1842 150.266C65.824 167.247 68.791 195.556 68.791 195.556C68.9816 197.33 70.5594 198.622 72.33 198.431C74.0985 198.238 75.3902 196.657 75.1995 194.886C75.1995 194.886 72.0895 166.336 67.3304 148.59C67.8092 148.399 68.312 148.206 68.8146 147.991C69.8182 147.536 70.8236 147.009 71.8033 146.41C77.4706 150.745 83.9766 150.338 89.2841 147.967C89.9301 148.566 90.5758 149.117 91.2932 149.643C92.108 150.218 92.9684 150.745 93.8289 151.201C85.3397 168.876 77.9973 195.725 77.9973 195.725C77.5184 197.449 78.5477 199.221 80.2448 199.7C81.9676 200.156 83.7361 199.125 84.215 197.425C84.215 197.425 91.4145 170.433 99.6889 153.619C102.391 154.458 104.567 154.816 105.118 154.913C111.264 155.894 118.438 153.404 120.351 147.655C122.551 141.045 120.78 135.202 115.806 133.38C109.47 131.058 104.351 135.56 100.981 139.44C99.5934 141.021 98.2045 143.081 96.8173 145.499C96.2213 145.165 95.6231 144.805 95.0728 144.397L94.9774 144.326C97.9422 141.765 100.19 138.602 101.267 135.729C102.344 132.83 102.294 130.149 101.29 128.208C100.478 126.627 99.0908 125.382 96.8909 124.783C92.8492 123.706 89.9301 125.406 87.9211 128.351C86.4386 130.554 85.5544 133.549 85.1708 136.063C84.8132 138.459 85.0277 140.591 85.6736 142.482ZM59.201 144.135C58.8651 143.224 58.5075 142.411 58.1716 141.693C57.1205 139.561 56.0195 137.189 54.5848 135.393C53.7245 134.291 52.7905 133.333 51.475 133.38C51.308 133.404 51.2366 133.549 51.1174 133.669C50.8768 133.955 50.7099 134.315 50.567 134.699C50.1595 135.824 50.088 137.213 50.6145 138.314C51.475 140.184 53.4601 142.387 55.6122 143.608C56.5699 144.159 57.5259 144.614 58.41 144.302C58.6028 144.254 58.8651 144.183 59.201 144.135ZM102.844 147.848C104.496 148.277 105.764 148.47 106.121 148.542C107.916 148.828 109.851 148.709 111.502 148.063C112.746 147.607 113.821 146.842 114.229 145.597C114.803 143.896 115.042 142.291 114.755 140.949C114.586 140.255 114.276 139.68 113.607 139.44C112.196 138.913 110.952 139.296 109.851 139.943C108.273 140.901 106.934 142.411 105.835 143.68C104.83 144.829 103.826 146.219 102.844 147.848ZM72.4015 137.213C72.9996 136.351 73.5003 135.369 73.884 134.243C74.3152 133.022 74.2913 131.322 73.7409 130.004C73.4528 129.31 72.9519 128.759 72.0656 128.807C71.9464 128.997 71.5649 129.646 71.4438 130.149C71.0384 131.656 71.1098 133.645 71.7558 135.634C71.9225 136.159 72.1373 136.685 72.4015 137.213ZM91.4859 138.793C93.2307 137.141 94.5699 135.226 95.2159 133.454C95.4543 132.853 95.5993 132.279 95.6231 131.752C95.647 131.418 95.5756 131.105 95.2159 131.01C94.3076 130.771 93.7097 131.322 93.2546 131.992C92.2986 133.404 91.796 135.393 91.5576 137.022C91.462 137.644 91.4384 138.243 91.4859 138.793Z" fill="url(#paint1_linear_228_356)" fill-opacity="0.19"/>
<path fill-rule="evenodd" clip-rule="evenodd" d="M97.1771 22.3951L99.21 3.76132C99.4009 1.98943 98.1329 0.384579 96.3644 0.193668C94.5938 0.000768714 92.9923 1.27152 92.8015 3.0434L90.7686 21.701C90.576 23.4728 91.8438 25.0539 93.6142 25.2447C95.3829 25.4615 96.9865 24.167 97.1771 22.3951Z" fill="url(#paint2_linear_228_356)" fill-opacity="0.18"/>
<path fill-rule="evenodd" clip-rule="evenodd" d="M142.304 39.903L154.572 26.0121C155.743 24.6697 155.623 22.6334 154.284 21.4601C152.969 20.263 150.912 20.4061 149.742 21.7247L137.473 35.6153C136.301 36.9558 136.42 39.016 137.759 40.1894C139.098 41.3627 141.131 41.2434 142.304 39.903Z" fill="url(#paint3_linear_228_356)" fill-opacity="0.18"/>
<path fill-rule="evenodd" clip-rule="evenodd" d="M165.813 69.6257L182.505 61.6254C184.109 60.8599 184.802 58.919 184.037 57.3141C183.272 55.7093 181.335 55.0153 179.731 55.7829L163.015 63.805C161.414 64.5726 160.744 66.4878 161.509 68.1165C162.274 69.7213 164.212 70.3915 165.813 69.6257Z" fill="url(#paint4_linear_228_356)" fill-opacity="0.18"/>
<path fill-rule="evenodd" clip-rule="evenodd" d="M56.1158 27.0899L48.8945 10.0134C48.2011 8.3608 46.3112 7.59318 44.6601 8.28722C43.0345 8.98324 42.2695 10.8745 42.963 12.527L50.1843 29.6037C50.8539 31.2324 52.7676 31.9979 54.3951 31.3278C56.0443 30.6338 56.8093 28.7187 56.1158 27.0899Z" fill="url(#paint5_linear_228_356)" fill-opacity="0.18"/>
<path fill-rule="evenodd" clip-rule="evenodd" d="M23.3516 46.7525L8.78797 35.28C7.40094 34.2021 5.36811 34.4428 4.26724 35.8308C3.16834 37.2446 3.4068 39.2812 4.81767 40.3589L19.3575 51.8295C20.7704 52.9312 22.8012 52.6926 23.9022 51.2787C25.003 49.8907 24.7388 47.8541 23.3516 46.7525Z" fill="url(#paint6_linear_228_356)" fill-opacity="0.18"/>
<defs>
<linearGradient id="paint0_linear_228_356" x1="84.5846" y1="35.8262" x2="84.5846" y2="248.102" gradientUnits="userSpaceOnUse">
<stop stop-color="#6633CC"/>
<stop offset="1" stop-color="#110C24"/>
</linearGradient>
<linearGradient id="paint1_linear_228_356" x1="82.5477" y1="122.33" x2="82.5477" y2="199.808" gradientUnits="userSpaceOnUse">
<stop stop-color="#6633CC"/>
<stop offset="1" stop-color="#110C24"/>
</linearGradient>
<linearGradient id="paint2_linear_228_356" x1="94.9892" y1="0.174316" x2="94.9892" y2="25.2685" gradientUnits="userSpaceOnUse">
<stop stop-color="#6633CC"/>
<stop offset="1" stop-color="#110C24"/>
</linearGradient>
<linearGradient id="paint3_linear_228_356" x1="146.022" y1="20.6428" x2="146.022" y2="40.995" gradientUnits="userSpaceOnUse">
<stop stop-color="#6633CC"/>
<stop offset="1" stop-color="#110C24"/>
</linearGradient>
<linearGradient id="paint4_linear_228_356" x1="172.771" y1="55.4697" x2="172.771" y2="69.9422" gradientUnits="userSpaceOnUse">
<stop stop-color="#6633CC"/>
<stop offset="1" stop-color="#110C24"/>
</linearGradient>
<linearGradient id="paint5_linear_228_356" x1="49.5392" y1="8.03174" x2="49.5392" y2="31.5703" gradientUnits="userSpaceOnUse">
<stop stop-color="#6633CC"/>
<stop offset="1" stop-color="#110C24"/>
</linearGradient>
<linearGradient id="paint6_linear_228_356" x1="14.0814" y1="34.6069" x2="14.0814" y2="52.5206" gradientUnits="userSpaceOnUse">
<stop stop-color="#6633CC"/>
<stop offset="1" stop-color="#110C24"/>
</linearGradient>
</defs>
</svg>
