<svg width="186" height="208" viewBox="0 0 186 208" fill="none" xmlns="http://www.w3.org/2000/svg">
<g opacity="0.27" clip-path="url(#clip0_16_1960)">
<path d="M157.67 169.845C157.93 172.005 158.193 174.166 158.453 176.327C159.157 179.438 159.859 182.551 160.562 185.662C161.229 188.23 161.903 190.307 162.408 191.758C163.602 195.183 164.944 198.256 167.081 203.149C167.288 203.619 167.459 204.01 167.571 204.264C113.601 204.236 75.3146 204.244 74.3715 204.33C74.2901 204.338 73.7492 204.416 73.3601 204.096C73.1498 203.926 73.0162 203.648 72.9446 203.219C72.7019 201.778 72.2899 200.364 71.9496 198.939C71.6157 197.191 70.9267 194.799 69.4055 192.312C66.0746 186.864 61.0028 184.623 59.0288 183.87C52.3461 183.661 45.5234 183.308 38.5685 182.793C37.1174 182.686 35.6743 182.574 34.2378 182.453C33.0212 182.363 28.907 181.909 25.4085 178.57C21.0614 174.423 21.0044 169.011 21.0093 168.068C20.7666 166.016 21.3023 164.011 21.3642 161.977C21.1184 159.952 20.9489 157.898 19.6068 156.483C18.9521 155.791 18.4032 156.027 17.5563 155.201C17.3413 154.993 15.6702 153.313 15.9813 151.046C16.0871 150.272 16.3885 149.686 16.6002 149.342C16.7452 149.127 16.8917 148.911 17.0383 148.696C17.3966 148.268 17.7534 147.841 18.11 147.414C16.0024 145.598 13.4453 144.168 12.7434 141.148C12.6912 140.862 12.6554 140.48 12.7075 140.037C12.8085 139.176 13.1896 138.555 13.416 138.241C13.8509 136.954 14.4242 135.71 14.561 134.337C14.5382 133.628 14.5154 132.92 14.4926 132.213C14.4926 132.211 14.491 132.21 14.491 132.208C14.3819 131.961 14.2727 131.713 14.162 131.467C13.5626 130.71 12.8753 130.203 11.8541 129.982C10.4094 129.666 5.08668 127.539 3.1094 124.175C2.48559 123.112 2.36506 122.211 2.33899 121.996C2.31295 121.773 2.22987 120.944 2.50349 119.914C2.65985 119.325 2.883 118.859 3.06541 118.538C3.93354 116.007 5.74632 114.07 7.22194 111.922C9.41097 108.741 11.6065 105.564 13.8004 102.384C15.6849 99.4982 17.5709 96.6122 19.457 93.7244C19.716 93.1396 19.9766 92.555 20.2355 91.9703C20.172 91.1071 20.4327 90.2975 20.641 89.4798C20.6313 88.5239 20.6199 87.5677 20.6102 86.6118C19.8283 83.895 19.1801 81.1472 18.8479 78.3344C18.6573 76.7285 18.4 74.7512 18.4798 72.124C18.5254 70.6647 18.6573 69.5604 18.9244 67.3486C19.0938 65.9365 19.3316 63.9805 19.8235 61.4168C19.9684 60.6627 20.3366 58.8059 20.9538 56.4361C21.374 54.822 21.7307 53.651 22.0956 52.4604C22.6379 50.6834 23.0809 49.2421 23.791 47.369C24.0126 46.7827 24.4459 45.6652 25.0566 44.2776C26.2943 41.4614 27.5045 39.2514 28.332 37.8294C28.8549 36.9304 29.5681 35.7089 30.6252 34.1729C32.1025 32.0296 33.513 30.3438 34.6074 29.1321C35.3712 28.2606 36.4121 27.1124 37.6891 25.8061C39.1011 24.363 40.8162 22.6186 43.2137 20.6577C44.748 19.4052 46.7937 17.8726 49.3558 16.3073C49.8638 15.9246 50.6343 15.361 51.6 14.7226C54.9814 12.4928 57.8317 11.2859 60.7732 10.0595C64.358 8.56432 66.8826 7.82 67.7034 7.59523C68.521 7.37047 69.342 7.16036 70.166 6.95677C74.3715 5.56419 78.7299 4.82475 83.0657 4.04785C91.6166 2.51521 100.25 1.83602 108.936 2.30346C127.641 3.30677 142.236 9.34287 148.349 13.1883C153.233 16.2634 157.344 19.9296 157.344 19.9296C159.439 21.7978 161.388 23.8304 161.686 24.1398C162.616 25.1122 163.383 25.9625 163.962 26.6188C165.02 27.8192 166.102 29.1321 167.185 30.5621C168.804 32.6974 170.18 34.7707 171.35 36.7155C172.071 37.9125 172.793 39.1081 173.516 40.3052C174.576 42.0984 175.361 43.6619 175.913 44.8395C176.912 46.9732 177.532 48.6704 178.177 50.4309C178.726 51.9311 178.464 51.3283 179.72 54.9801C180.811 58.1577 181.332 59.5486 181.8 61.7849C181.962 62.57 182.07 63.2198 182.135 63.64C182.264 64.3372 182.394 65.0342 182.523 65.7313C182.813 67.8666 183.103 70.0003 183.391 72.1338C183.541 74.1584 183.607 76.3571 183.541 78.7042C183.415 83.1898 182.837 87.1737 182.112 90.5418C181.207 95.5274 179.676 100.332 177.764 105.008C175.802 109.798 173.449 114.413 170.799 118.846C168.382 122.887 166.375 127.102 164.571 131.43C164.027 132.733 163.131 135.881 161.336 141.042C160.898 142.303 160.532 143.341 160.284 144.038C159.556 147.75 158.83 151.46 158.102 155.172C157.86 158.037 157.619 160.902 157.38 163.766C157.476 165.793 157.572 167.819 157.67 169.845ZM157.67 169.845C157.67 169.843 157.668 169.843 157.668 169.843" stroke="url(#paint0_linear_16_1960)" stroke-width="3.59247"/>
<path d="M131.462 31.4583C139.236 31.692 138.674 37.0222 138.963 39.9879C139.255 42.9536 138.963 71.3544 138.963 71.3544H128.923C128.632 68.912 124.677 62.1844 117.175 63.465C109.674 64.7437 110.39 71.3544 110.39 71.3544H100.348V58.2295C96.3948 58.365 91.9926 54.9723 92.4195 50.884C92.8463 46.7731 97.2279 44.2343 99.7668 44.9506L100.329 31.4583C100.329 31.4583 123.669 31.2264 131.462 31.4583ZM86.0425 74.3777C86.6049 78.4883 80.3822 84.5554 74.7216 83.0037C69.0613 81.454 67.6451 74.3777 67.6451 74.3777H57.1778C57.1778 74.3777 57.0425 98.1442 57.1778 104.658C57.3133 111.171 62.276 114.001 65.9581 114.157C69.6421 114.311 96.6063 113.438 96.6063 113.438L96.6842 100.568C102.23 100.995 105.583 96.1862 104.865 92.9292C104.167 89.6739 100.91 87.1331 96.6842 87.8309C96.6842 87.8309 96.5303 74.8231 96.6842 74.398H86.0425V74.3777Z" fill="url(#paint1_linear_16_1960)"/>
<mask id="mask0_16_1960" style="mask-type:luminance" maskUnits="userSpaceOnUse" x="56" y="31" width="97" height="97">
<path d="M56.9888 31.2756H152.081V127.723H56.9888V31.2756Z" fill="white"/>
</mask>
<g mask="url(#mask0_16_1960)">
<path d="M57.3541 38.8047C57.7215 33.4355 60.7077 32.1938 65.8448 31.6909C70.9819 31.1861 96.6859 31.6909 96.6859 31.6909V41.9262C96.6859 41.9262 87.6924 45.1629 88.4476 51.0369C89.203 56.9106 92.0723 60.0323 96.6859 60.3998V70.7704L83.3291 71.3718C83.446 78.7193 77.7076 79.8828 73.8306 77.886C69.9537 75.889 70.9614 71.3718 70.9614 71.3718H57.3541C57.3541 71.3718 56.9661 44.1737 57.3541 38.8047ZM115.685 78.4872L112.118 87.5773C114.618 88.5667 117.505 92.425 116.091 97.9499C114.675 103.475 108.705 106.285 105.273 104.947L101.435 114.697C101.435 114.697 126.54 125.477 129.875 126.64C133.208 127.802 137.744 128.966 140.73 121.793C143.714 114.601 152.129 92.8314 152.129 92.8314L139.897 88.0247C139.897 88.0247 141.602 80.1929 137.686 78.1959C133.77 76.199 129.448 78.2923 128.052 82.6148L115.685 78.4872Z" fill="url(#paint2_linear_16_1960)"/>
</g>
</g>
<defs>
<linearGradient id="paint0_linear_16_1960" x1="92.9366" y1="2.15796" x2="92.9366" y2="204.344" gradientUnits="userSpaceOnUse">
<stop stop-color="#6633CC"/>
<stop offset="1" stop-color="#110C24"/>
</linearGradient>
<linearGradient id="paint1_linear_16_1960" x1="98.1052" y1="31.3552" x2="98.1052" y2="114.175" gradientUnits="userSpaceOnUse">
<stop stop-color="#6633CC"/>
<stop offset="1" stop-color="#110C24"/>
</linearGradient>
<linearGradient id="paint2_linear_16_1960" x1="104.655" y1="31.4666" x2="104.655" y2="127.508" gradientUnits="userSpaceOnUse">
<stop stop-color="#6633CC"/>
<stop offset="1" stop-color="#110C24"/>
</linearGradient>
<clipPath id="clip0_16_1960">
<rect width="185.49" height="206.967" fill="white" transform="translate(0.354004 0.205811)"/>
</clipPath>
</defs>
</svg>
