<svg width="310" height="138" viewBox="0 0 310 138" fill="none" xmlns="http://www.w3.org/2000/svg">
<path d="M137.448 68.7251C137.448 100.482 115.876 127.2 86.5858 135.026C84.8361 135.493 83.0582 135.893 81.2546 136.223C77.2246 136.961 73.0706 137.346 68.8264 137.346C64.5822 137.346 60.3366 136.953 56.2648 136.199C55.788 136.111 55.3139 136.018 54.8411 135.919C53.0928 135.558 51.3687 135.129 49.6729 134.636C49.2055 134.5 48.7408 134.36 48.2774 134.215C41.5266 132.1 35.2229 128.97 29.5496 125C28.3777 124.181 27.2328 123.327 26.1162 122.437C10.326 109.866 0.205078 90.4782 0.205078 68.7251C0.205078 30.8262 30.9275 0.10376 68.8264 0.10376C106.725 0.10376 137.448 30.8262 137.448 68.7251Z" fill="url(#paint0_linear_645_1624)"/>
<path d="M90.5699 43.8102C90.4137 44.0055 90.3126 44.2493 90.2938 44.516L82.2202 43.8223L84.0992 41.4436L86.2826 39.9512L86.7055 39.6616L90.5699 43.8102Z" fill="#110C24"/>
<path d="M83.3611 39.3841V39.3612L80.7736 36.8154C80.6901 37.8566 80.7574 38.9907 81.2423 39.7935C81.2423 39.7935 82.1892 39.8649 83.3611 39.3854V39.3841Z" fill="#110C24"/>
<path d="M101.163 37.8438C100.886 38.8553 100.589 39.7228 100.282 40.4663L92.7664 44.2377C92.7529 44.1933 92.7381 44.1515 92.7192 44.1098L95.3943 39.0048C95.8374 38.6816 96.325 38.4391 96.8274 38.26H96.8288C98.8963 37.5205 101.163 37.8438 101.163 37.8438Z" fill="#110C24"/>
<path d="M46.512 122.823C46.5995 123.057 46.683 123.289 46.7611 123.516L52.0088 125.575C51.6937 124.408 51.3879 123.269 51.105 122.2L46.512 122.823Z" fill="#110C24"/>
<path d="M81.9847 54.7321L78.5972 57.989L77.2974 57.5674L78.4961 53.0376L81.4177 53.738C81.4688 54.1407 81.679 54.4936 81.9847 54.7321Z" fill="#110C24"/>
<path d="M92.5086 74.1055C92.5086 74.2469 92.5315 74.3843 92.5719 74.5123L77.9131 81.2982C77.7905 81.1581 77.641 81.0449 77.47 80.9668L82.9035 65.5995C83.1029 65.4379 83.2942 65.2736 83.4787 65.1079L92.6473 73.5169C92.5584 73.6947 92.5086 73.894 92.5086 74.1055Z" fill="#110C24"/>
<path d="M82.1216 66.197L76.9412 80.8437H76.9156C76.5358 80.8437 76.1923 81.004 75.9499 81.2626L68.1996 76.2102C68.2076 76.1496 68.2117 76.0876 68.2117 76.0243C68.2117 75.5758 68.011 75.1744 67.6958 74.9037L71.8094 69.6142C72.169 69.5832 72.5313 69.5496 72.8977 69.5105C72.9314 69.5065 72.9664 69.5038 73.0001 69.4997C76.9587 69.0754 79.922 67.7743 82.1216 66.197Z" fill="#110C24"/>
<path d="M67.623 96.3144C67.522 96.3037 67.4236 96.2929 67.3226 96.2821H67.3213C66.9576 96.2431 66.5899 96.204 66.2195 96.1649L62.2514 90.0714C62.2972 89.9205 62.3214 89.7589 62.3214 89.5932C62.3214 88.9804 61.986 88.4456 61.489 88.1628L66.2855 77.4236C66.3946 77.4586 66.5091 77.4815 66.6263 77.4909L67.623 96.3144Z" fill="#110C24"/>
<path d="M65.5302 96.0943C62.6693 95.7953 59.6359 95.5057 56.7926 95.3805H56.7912C56.4652 95.3656 56.1433 95.3535 55.8228 95.3441L59.5551 90.7968C59.8488 91.0716 60.2434 91.24 60.6771 91.24C61.1984 91.24 61.6631 90.9975 61.9648 90.6177L65.5302 96.0943Z" fill="#110C24"/>
<path d="M93.1821 75.2581L88.6348 88.4002C88.4234 88.2588 88.1701 88.1752 87.8967 88.1752C87.4792 88.1752 87.1074 88.3679 86.865 88.6696L78.1206 82.7134C78.1974 82.5464 78.2391 82.3618 78.2391 82.1665C78.2391 82.0278 78.2176 81.8944 78.1785 81.7692L92.8413 74.9819C92.9383 75.0924 93.0528 75.1853 93.1821 75.2581Z" fill="#110C24"/>
<path d="M95.4922 44.8601C95.4922 44.8601 96.7018 47.1687 98.2346 50.3893L84.4163 53.4145C84.4082 53.3175 84.3907 53.2232 84.3638 53.1316L91.4527 45.8635C91.4864 45.8662 91.5201 45.8676 91.5551 45.8676C92.1787 45.8676 92.696 45.4177 92.7997 44.8251L99.9385 41.2422C99.855 41.4173 99.7715 41.5843 99.6879 41.7419C97.681 45.5282 95.4922 44.8601 95.4922 44.8601Z" fill="#110C24"/>
<path d="M90.883 45.6746L84.1079 52.6222C83.8937 52.3434 83.5826 52.1413 83.227 52.0672L82.0188 44.3452L90.3793 45.0631C90.4776 45.3177 90.6554 45.5305 90.883 45.6746Z" fill="#110C24"/>
<path d="M102.732 60.8821L101.082 63.2662C100.903 63.1746 100.701 63.1234 100.485 63.1234C100.092 63.1234 99.7376 63.2945 99.4952 63.5679L88.8665 58.7566L98.8635 51.7229C100.178 54.5447 101.631 57.8542 102.732 60.8821Z" fill="#110C24"/>
<path d="M88.0363 58.1794C88.0404 58.1673 88.0417 58.1606 88.0417 58.1606L86.1142 55.8627L82.7792 59.3459L79.8941 58.4098L79.1775 58.1767L82.491 54.9912C82.6243 55.0303 82.7657 55.0505 82.9126 55.0505C83.6049 55.0505 84.1895 54.5831 84.3659 53.946L98.3081 51.0864L88.0363 58.1794Z" fill="#110C24"/>
<path d="M99.5884 65.4207L94.404 72.9123C94.2303 72.8288 94.0363 72.7817 93.8316 72.7817C93.5083 72.7817 93.2107 72.8989 92.9803 73.0928L83.875 64.7404C84.0326 64.5909 84.1848 64.4401 84.3303 64.2879C84.3815 64.2353 84.4313 64.1828 84.4811 64.1303C86.3668 62.1301 87.334 60.0922 87.7582 58.9917L99.2221 64.0468C99.1817 64.1747 99.1601 64.3081 99.1601 64.4468C99.1601 64.832 99.3244 65.1795 99.5884 65.4207Z" fill="#110C24"/>
<path d="M82.6805 52.0511C82.0744 52.1454 81.5868 52.6006 81.4467 53.1906L78.6343 52.5158L78.6464 52.4727L80.326 46.1205L80.5537 45.2598L81.5033 44.5352L82.6805 52.0511Z" fill="#110C24"/>
<path d="M53.4932 98.1813L53.4798 98.1705L53.0878 98.1854L53.0838 98.1894L53.0811 98.1854L49.4053 98.3214L53.3303 103.111C55.907 100.369 57.8466 98.0103 57.8466 98.0103L53.504 98.1705L53.4946 98.1827L53.4932 98.1813Z" fill="#110C24"/>
<path d="M34.937 109.931L34.9438 109.947L35.9068 110.633C36.0361 110.509 36.1641 110.389 36.2853 110.274C36.7379 109.85 37.1393 109.488 37.4989 109.175L34.374 97.0327C34.145 97.4166 33.8918 97.756 33.6103 98.047C30.5015 101.273 27.6218 103.692 27.6218 103.692C27.6218 103.692 27.6016 103.821 27.5652 104.062C27.5423 104.211 27.514 104.403 27.4817 104.631L34.9262 109.935L34.937 109.931Z" fill="#110C24"/>
<path d="M43.2127 86.3395C42.814 86.621 42.554 87.087 42.554 87.6124H36.5439C36.8497 84.3716 37.0329 80.813 37.4168 77.4295C37.4881 76.7937 37.5636 76.2011 37.6444 75.6475L43.2127 86.3395Z" fill="#110C24"/>
<path d="M34.3332 110.173L27.3964 105.231C27.1445 107.002 26.7337 110.09 26.4307 113.342L34.3332 110.174V110.173Z" fill="#110C24"/>
<path d="M52.1827 126.221L46.9795 124.181C47.2475 125.049 47.4307 125.856 47.4873 126.57C47.5479 127.324 47.626 128.164 47.7136 129.044L53.3923 130.658C52.9936 129.205 52.5828 127.699 52.1841 126.221H52.1827Z" fill="#110C24"/>
<path d="M28.1721 81.6329C30.6518 83.0418 34.2522 83.0661 34.2522 83.0661L34.4367 81.1547L30.8579 78.4878L28.1721 81.6329Z" fill="#110C24"/>
<path d="M39.0213 99.0664L38.6751 108.205C38.4582 108.375 38.2198 108.566 37.9572 108.786L34.7515 96.3254C34.9912 95.8149 35.2013 95.2478 35.3859 94.6322C35.4209 94.511 35.4559 94.3871 35.4896 94.2632L38.2724 97.2642C38.1929 97.4339 38.1485 97.6225 38.1485 97.8232C38.1485 98.3956 38.5121 98.8832 39.0213 99.0664Z" fill="#110C24"/>
<path d="M96.3461 85.295C92.5828 89.4233 88.1379 95.6624 87.1303 99.8325C86.8717 100.897 86.6926 102.776 86.5687 105.144L81.1445 109.536C81.1486 107.916 81.1567 106.639 81.1715 105.887C81.1998 104.47 81.154 103.1 80.9869 101.877C80.9331 101.491 80.8671 101.122 80.7876 100.769L88.1136 90.804C88.7399 90.6989 89.2181 90.1547 89.2181 89.4974C89.2181 89.2617 89.1561 89.0395 89.047 88.8482L93.694 75.4219C93.7384 75.4259 93.7842 75.4286 93.8314 75.4286H93.8475L96.3461 85.295Z" fill="#110C24"/>
<path d="M75.9811 83.1037L69.2639 96.4869C69.2639 96.4869 69.2532 96.4869 69.2491 96.4869C68.8935 96.4505 68.5312 96.4128 68.1662 96.3738L67.1641 77.4344C67.5331 77.324 67.8402 77.0721 68.0248 76.7407L75.6687 81.7244C75.6188 81.8631 75.5919 82.0113 75.5919 82.1676C75.5919 82.5339 75.74 82.8653 75.9811 83.105V83.1037Z" fill="#110C24"/>
<path d="M43.4552 89.0259L39.7592 96.5297C39.6662 96.5095 39.5706 96.4987 39.4723 96.4987C39.1396 96.4987 38.8352 96.6213 38.6022 96.8261L35.6497 93.6419C35.7157 93.3644 35.779 93.0802 35.8382 92.7879C36.1238 91.3831 36.3272 89.8125 36.4928 88.1504H42.6497C42.7925 88.537 43.0848 88.8521 43.4552 89.0259Z" fill="#110C24"/>
<path d="M42.5941 114.01L48.9032 114.089C48.2499 112.208 47.6977 110.916 47.9832 109.565L44.3855 103.444C42.8419 105.338 41.4479 107.348 41.1798 108.689C40.9522 109.829 41.6176 111.764 42.5941 114.01Z" fill="#110C24"/>
<path d="M50.1355 106.342C50.5666 105.93 50.9935 105.51 51.4151 105.088L44.8542 102.878C44.7693 102.979 44.6858 103.08 44.6023 103.181L48.1542 108.988C48.4599 108.197 49.0755 107.355 50.1369 106.342H50.1355Z" fill="#110C24"/>
<path d="M50.8714 95.6878C48.4469 96.2899 47.1255 97.5776 46.0076 99.2182C45.9496 99.3017 45.8944 99.3865 45.8378 99.4714L45.8944 99.2222L40.7733 98.0611C40.7882 97.9844 40.7949 97.9035 40.7949 97.8227C40.7949 97.3836 40.5807 96.993 40.2507 96.7533L43.9871 89.1659C44.0289 89.17 44.0707 89.1713 44.1138 89.1713C44.4047 89.1713 44.6768 89.0919 44.9098 88.9531L50.8714 95.6878Z" fill="#110C24"/>
<path d="M49.753 116.942C49.5456 116.077 49.3139 115.316 49.0863 114.63L42.8311 114.551C42.8769 114.656 42.924 114.76 42.9711 114.865L50.1086 118.379C49.9712 117.836 49.8513 117.353 49.753 116.941V116.942Z" fill="#110C24"/>
<path d="M50.9655 121.674C50.7164 120.732 50.486 119.851 50.2853 119.067L43.3257 115.64C44.3278 117.819 45.4754 120.166 46.3159 122.305L50.9669 121.674H50.9655Z" fill="#110C24"/>
<path d="M51.7771 104.724C52.1798 104.316 52.5745 103.908 52.957 103.505L48.8582 98.5024C48.3397 99.0251 46.6897 100.71 45.0464 102.648L51.7771 104.725V104.724Z" fill="#110C24"/>
<path d="M53.8433 80.5318L45.4101 86.7425C45.2256 86.4664 44.9548 86.2536 44.637 86.1404L45.1488 68.0012C45.4748 67.9783 45.8142 67.9594 46.1698 67.9419C46.19 67.9406 46.2088 67.9406 46.229 67.9392H46.2546L53.5833 78.8373C53.4594 79.0394 53.3867 79.2778 53.3867 79.5337C53.3867 79.9324 53.5631 80.2893 53.8433 80.5318Z" fill="#110C24"/>
<path d="M65.8122 77.1651L60.9848 87.977H60.9834C60.8837 87.9568 60.7827 87.9474 60.6777 87.9474C59.7685 87.9474 59.0317 88.6842 59.0317 89.5934C59.0317 89.8695 59.099 90.1295 59.2203 90.3571L55.1404 95.3273C54.9761 95.3233 54.809 95.3192 54.6474 95.3165C53.7988 95.3058 53.0365 95.3435 52.3468 95.4256C52.0424 95.462 51.7528 95.5064 51.4754 95.5576L45.3198 88.6034C45.5421 88.3326 45.6754 87.9878 45.6754 87.612C45.6754 87.4868 45.6606 87.3669 45.6323 87.2497L54.374 80.814C54.4817 80.8423 54.5949 80.8571 54.7107 80.8571C55.2697 80.8571 55.7479 80.5109 55.9418 80.0207L65.3354 76.4607C65.4216 76.7409 65.59 76.9847 65.8122 77.1651Z" fill="#110C24"/>
<path d="M96.3937 98.9244L97.7245 94.3259L92.493 93.0732L89.5593 96.8824C89.5593 96.8824 93.3469 98.259 96.3951 98.9244H96.3937Z" fill="#110C24"/>
<path d="M55.7239 68.8894L54.7365 78.2102H54.711C54.4348 78.2102 54.1789 78.2951 53.9661 78.4406L46.896 67.925C47.2354 67.9223 47.5789 67.9277 47.9304 67.9412C50.2458 68.0354 52.8077 68.4651 55.7239 68.8894Z" fill="#110C24"/>
<path d="M34.4975 80.529L35.039 74.9216C34.3978 76.5972 32.8879 77.5684 31.2783 78.1314L34.4962 80.5303L34.4975 80.529Z" fill="#110C24"/>
<path d="M71.0828 69.67L67.2238 74.6335C67.0729 74.5796 66.9099 74.5513 66.7402 74.5513C65.9671 74.5513 65.3327 75.148 65.2747 75.9077L56.0293 79.4111C55.9849 78.9316 55.6845 78.5248 55.2656 78.3322L56.257 68.9656C56.6058 69.0154 56.9574 69.0652 57.317 69.1137C61.2137 69.6444 65.7287 70.0633 71.0828 69.67Z" fill="#110C24"/>
<path d="M44.6102 68.0435L44.1011 86.0507C43.9624 86.0521 43.8277 86.0709 43.6997 86.1073L37.7866 74.7539C37.8769 74.2353 37.9725 73.7545 38.0803 73.3127C39.0285 69.3635 40.7095 68.3802 44.6102 68.0435Z" fill="#110C24"/>
<path d="M83.3903 38.633L83.5331 35.0044C82.927 34.6043 82.1821 34.2784 81.2824 34.145C81.2824 34.145 81.0062 35.0178 80.8486 36.1331L83.3903 38.633Z" fill="#110C24"/>
<path d="M88.9087 37.3921L89.6711 38.1544L94.8541 32.9714V16.9455C95.5235 16.7206 96.0071 16.0888 96.0071 15.3426C96.0071 14.4079 95.2501 13.6509 94.3153 13.6509C93.3805 13.6509 92.6236 14.4079 92.6236 15.3426C92.6236 16.0888 93.1071 16.7206 93.7765 16.9455V32.5242L92.1764 34.1244V22.6269C92.8458 22.402 93.3294 21.7702 93.3294 21.024C93.3294 20.0893 92.5724 19.3323 91.6376 19.3323C90.7028 19.3323 89.9458 20.0893 89.9458 21.024C89.9458 21.7702 90.4294 22.402 91.0988 22.6269V35.202L88.9087 37.3921Z" fill="#110C24"/>
<path d="M93.6581 41.1565L92.361 43.6308C92.1428 43.449 91.8613 43.3399 91.5542 43.3399C91.3522 43.3399 91.1609 43.387 90.9912 43.4719L87.3315 39.5456L88.2825 39.5146L92.4163 39.3826L93.6581 41.1565Z" fill="#110C24"/>
<path d="M83.9104 39.1222C84.5206 38.7909 85.159 38.2979 85.7369 37.5652C85.7369 37.5652 85.2398 36.3826 84.0572 35.3953L83.9104 39.1222Z" fill="#110C24"/>
<path d="M45.6751 99.726C44.8777 100.98 44.1423 102.405 43.1132 103.871C41.7541 105.806 41.1278 106.411 40.3385 106.994C40.0166 107.231 39.6664 107.467 39.23 107.787L39.5573 99.1441C39.9762 99.1172 40.3426 98.8949 40.5661 98.5676L45.6751 99.726Z" fill="#110C24"/>
<path d="M76.9144 96.9417C76.8605 96.9444 76.8053 96.9457 76.75 96.9498C75.4502 97.0495 73.3517 96.8959 70.8316 96.6467C70.507 96.6157 70.1743 96.5807 69.8362 96.5471L76.4349 83.3995L76.5345 83.2002L76.5413 83.4359L76.9144 96.9417Z" fill="#110C24"/>
<path d="M81.2261 131.519C81.2382 133.446 81.2476 135.08 81.2557 136.224C83.0593 135.894 84.8372 135.494 86.5869 135.026C86.5748 134.533 86.56 133.972 86.5451 133.351L81.2261 131.519Z" fill="#110C24"/>
<path d="M99.2704 108.39L95.7279 112.982L94.6638 114.361C96.1818 113.144 97.7914 111.593 99.2704 109.655V108.39Z" fill="#110C24"/>
<path d="M54.841 135.92C53.0926 135.559 51.3686 135.13 49.6728 134.637C49.2054 134.501 48.7407 134.361 48.2773 134.216C48.1036 132.726 47.9258 131.127 47.7722 129.621L53.5587 131.266C54.0207 132.952 54.4625 134.55 54.841 135.92Z" fill="#110C24"/>
<path d="M27.7095 81.345L30.1785 78.4531C27.9978 78.9825 25.9558 78.8855 25.9558 78.8855C26.1807 79.9563 26.8461 80.7524 27.7095 81.345Z" fill="#110C24"/>
<path d="M98.6558 13.5624V31.2653L92.5286 37.3926L93.2909 38.1549L104.391 27.0548V16.0678C105.061 15.8428 105.544 15.2111 105.544 14.4649C105.544 13.5301 104.787 12.7731 103.852 12.7731C102.918 12.7731 102.161 13.5301 102.161 14.4649C102.161 15.2111 102.644 15.8428 103.314 16.0678V26.6089L99.7334 30.1878V13.5624C100.403 13.3375 100.886 12.7058 100.886 11.9596C100.886 11.0248 100.129 10.2678 99.1946 10.2678C98.2598 10.2678 97.5028 11.0248 97.5028 11.9596C97.5028 12.7058 97.9864 13.3375 98.6558 13.5624Z" fill="#110C24"/>
<path d="M30.0965 119.671L26.2294 115.804C26.057 118.246 25.9803 120.618 26.1163 122.437C27.2329 123.328 28.3778 124.182 29.5497 125.001C29.4971 123.534 29.5914 121.667 30.0952 119.671H30.0965Z" fill="#110C24"/>
<path d="M34.856 110.545L26.3783 113.944C26.3703 114.031 26.3635 114.117 26.3554 114.203C26.3299 114.501 26.3056 114.798 26.2827 115.096L30.2602 119.074C30.3316 118.83 30.4071 118.585 30.4906 118.338C31.1802 116.316 32.3291 114.227 34.1906 112.332C34.6701 111.844 35.1092 111.408 35.5147 111.015L34.856 110.546V110.545Z" fill="#110C24"/>
<path d="M92.8513 92.6041L97.8727 93.8069L98.2485 92.5044L95.2435 89.498L92.8513 92.6041Z" fill="#110C24"/>
<path d="M98.1405 102.412C97.8509 103.257 97.463 104.214 96.9485 105.212L103.183 99.9458L98.1405 102.412Z" fill="#110C24"/>
<path d="M88.3604 113.329V118.13C88.3604 118.13 90.1033 117.499 92.4524 115.965L88.3604 113.33V113.329Z" fill="#110C24"/>
<path d="M98.397 93.9321L100.079 94.3349L98.6839 92.9395L98.397 93.9321Z" fill="#110C24"/>
<path d="M87.4812 90.7561L80.6145 100.097C80.2104 98.7448 79.5571 97.7211 78.5402 97.2403C78.2156 97.0867 77.8546 96.9897 77.4545 96.9534L77.0801 83.4799C77.3562 83.4462 77.6054 83.3264 77.802 83.1499L86.6178 89.1532C86.5881 89.2623 86.572 89.3782 86.572 89.498C86.572 90.084 86.9532 90.581 87.4812 90.7561Z" fill="#110C24"/>
<path d="M81.1561 117.418C81.1561 117.646 81.1575 117.875 81.1588 118.105L85.0178 121.038L86.3405 119.233C86.3378 118.736 86.3365 118.239 86.3365 117.74L81.1494 114.552C81.1521 115.476 81.1548 116.435 81.1575 117.416L81.1561 117.418Z" fill="#110C24"/>
<path d="M101.797 64.6102C101.804 64.5563 101.808 64.5024 101.808 64.4472C101.808 64.1266 101.693 63.833 101.505 63.604L102.956 61.5068C103.032 61.7264 103.108 61.9432 103.18 62.1588C103.218 62.2706 103.255 62.3823 103.29 62.4955C103.578 63.3966 103.803 64.33 103.97 65.2783C103.99 65.3914 104.009 65.5059 104.028 65.6191L101.797 64.6102Z" fill="#110C24"/>
<path d="M86.3354 116.597C86.3394 113.045 86.3852 109.564 86.5011 106.638C86.5119 106.374 86.5226 106.119 86.5334 105.866L81.1443 110.23C81.1443 110.473 81.1443 110.721 81.1443 110.974C81.1443 111.738 81.1443 112.552 81.1456 113.408C81.1456 113.577 81.1456 113.749 81.1456 113.92L86.3341 117.108C86.3341 116.937 86.3341 116.767 86.3341 116.596L86.3354 116.597Z" fill="#110C24"/>
<path d="M86.3591 122.057C86.3578 121.874 86.3551 121.692 86.3538 121.509V121.368C86.3511 120.96 86.3484 120.551 86.3457 120.139L85.4473 121.364L86.3591 122.057Z" fill="#110C24"/>
<path d="M100.808 95.0626L98.2475 94.4497L96.9221 99.032C97.5067 99.1465 98.0522 99.2273 98.5223 99.2596L101.938 96.1913L100.809 95.0626H100.808Z" fill="#110C24"/>
<path d="M81.1609 118.784C81.1703 121.263 81.1824 123.831 81.1959 126.25L84.698 121.472L81.1609 118.784Z" fill="#110C24"/>
<path d="M102.318 96.5728L98.8703 99.6707C98.7949 100.084 98.644 100.799 98.3706 101.699L104.138 98.8787C104.166 98.7454 104.195 98.612 104.22 98.4773L102.317 96.5741L102.318 96.5728Z" fill="#110C24"/>
<path d="M102.519 78.8455C101.102 81.3615 98.6967 82.7785 96.7827 84.8232L94.3757 75.3138C94.8364 75.1063 95.1556 74.643 95.1556 74.1056C95.1556 73.7756 95.0344 73.4725 94.8337 73.2422L100.054 65.6979C100.189 65.7451 100.335 65.7707 100.485 65.7707C100.969 65.7707 101.393 65.5107 101.624 65.1228L104.122 66.2542C104.316 66.3418 104.305 68.0551 104.319 68.3016C104.514 71.7632 104.253 75.7663 102.519 78.8455Z" fill="#110C24"/>
<path d="M103.863 100.077L99.8071 103.815V108.921C101.495 106.541 102.964 103.622 103.863 100.077Z" fill="#110C24"/>
<path d="M99.2702 107.508V103.957L96.179 106.567C95.0543 108.37 93.4891 110.189 91.3206 111.617L95.4153 112.502L99.2689 107.506L99.2702 107.508Z" fill="#110C24"/>
<path d="M86.5266 132.595C86.4687 129.965 86.4027 126.475 86.365 122.739L85.1285 121.798L81.2021 127.154C81.2048 127.618 81.2075 128.076 81.2102 128.525C81.2143 129.301 81.2183 130.052 81.2223 130.768C81.2223 130.828 81.2223 130.888 81.2223 130.947L86.5306 132.776C86.5293 132.715 86.528 132.657 86.5266 132.595Z" fill="#110C24"/>
<path d="M90.6645 112.029C90.0813 112.372 89.459 112.689 88.7922 112.969L92.9395 115.64C92.9799 115.613 93.0203 115.583 93.062 115.555L95.0515 112.977L90.6645 112.029Z" fill="#110C24"/>
<path d="M76.5342 83.2007L76.4346 83.4C76.4696 83.4135 76.5046 83.4256 76.541 83.4364L76.5342 83.2007Z" fill="#FCF7FF"/>
<g clip-path="url(#clip0_645_1624)">
<path d="M178.969 9.70378H160.473V39.3598H178.969C183.295 39.3598 187.214 37.701 190.047 35.0183C192.883 32.3356 194.636 28.6265 194.636 24.533C194.636 16.3411 187.622 9.70378 178.969 9.70378ZM185.444 30.1092C183.936 31.5373 182.306 32.0332 180.005 32.0332L168.399 31.8819C167.855 31.8745 167.415 31.4555 167.415 30.9398V17.6998C167.415 17.1172 167.915 16.6436 168.533 16.6436H179.404C184.022 16.6436 187.919 20.2189 187.887 24.59C187.869 26.7446 186.94 28.6934 185.446 30.1092H185.444ZM230.58 12.8005C230.58 14.7369 229.015 16.3064 227.084 16.3064H199.163C197.232 16.3064 195.667 14.7369 195.667 12.8005C195.667 10.8641 197.232 9.29468 199.163 9.29468H227.084C229.015 9.29468 230.58 10.8641 230.58 12.8005ZM230.58 35.8564C230.58 37.7928 229.015 39.3622 227.084 39.3622H199.163C197.232 39.3622 195.667 37.7928 195.667 35.8564C195.667 33.92 197.232 32.3505 199.163 32.3505H227.084C229.015 32.3505 230.58 33.92 230.58 35.8564ZM198.335 24.3272C198.335 22.3908 199.9 20.8214 201.831 20.8214H224.416C226.347 20.8214 227.912 22.3908 227.912 24.3272C227.912 26.2636 226.347 27.8331 224.416 27.8331H201.831C199.9 27.8331 198.335 26.2636 198.335 24.3272ZM268.776 12.8005C268.776 14.7369 267.211 16.3064 265.28 16.3064H237.359C235.428 16.3064 233.863 14.7369 233.863 12.8005C233.863 10.8641 235.428 9.29468 237.359 9.29468H265.28C267.211 9.29468 268.776 10.8641 268.776 12.8005ZM268.776 35.8564C268.776 37.7928 267.211 39.3622 265.28 39.3622H237.359C235.428 39.3622 233.863 37.7928 233.863 35.8564C233.863 33.92 235.428 32.3505 237.359 32.3505H265.28C267.211 32.3505 268.776 33.92 268.776 35.8564ZM236.533 24.3297C236.533 22.3933 238.098 20.8238 240.029 20.8238H262.615C264.545 20.8238 266.11 22.3933 266.11 24.3297C266.11 26.2661 264.545 27.8356 262.615 27.8356H240.029C238.098 27.8356 236.533 26.2661 236.533 24.3297ZM301.12 30.3695L306.366 39.3647H298.219L293.589 31.4282H279.654V39.3647H272.6V24.5256H296.17C297.272 24.5256 298.274 24.0818 298.998 23.3652C299.723 22.6487 300.17 21.6594 300.17 20.566C300.17 18.3792 298.38 16.6089 296.172 16.6089H272.603V9.69138H296.395C302.46 9.69138 307.375 14.5559 307.375 20.5561C307.375 23.5561 306.146 26.2735 304.158 28.2397C303.28 29.1075 302.254 29.8315 301.12 30.3645V30.3695ZM195.081 44.0384V73.7067H188.398V62.2247H167.156V73.7067H160.473V44.0384H167.156V55.5204H188.398V44.0384H195.081ZM236.788 73.7067H228.711L217.281 53.8568C217.004 53.3757 216.309 53.3757 216.032 53.8568L204.602 73.7067H196.525L211.965 46.8872C214.049 43.2648 219.261 43.2648 221.348 46.8872L236.788 73.7067ZM262.99 55.8279V51.6476H242.848V66.7347H262.99V62.423H271.179V62.5545C271.179 68.9934 265.974 74.2125 259.554 74.2125H245.59C239.918 74.2125 235.322 69.6034 235.322 63.9156V54.4667C235.322 48.779 239.918 44.1698 245.59 44.1698H259.554C265.974 44.1698 271.179 49.3889 271.179 55.8279H262.99ZM309.508 73.5282L309.298 73.7067H300.222L287.435 58.4238L280.131 64.5677V73.7043H272.905V44.0359H280.131V55.1039L282.787 52.87L288.325 48.2087L293.285 44.0359H304.529L292.968 53.7625L309.506 73.5258L309.508 73.5282Z" fill="url(#paint1_linear_645_1624)"/>
<path d="M290.234 128.303C280.768 128.303 274.458 122.178 274.458 112.992H283.983C283.983 117.195 286.424 119.717 290.472 119.717C294.818 119.717 297.496 116.895 297.496 112.211C297.496 107.648 294.996 104.946 290.65 104.946C287.674 104.946 284.995 106.507 283.923 108.669L275.113 106.988L280.649 83.1509H304.581V92.1572H287.555L285.828 98.6418C287.733 97.501 290.174 96.9006 292.853 96.9006C301.425 96.9006 307.379 102.605 307.379 111.611C307.379 121.578 300.413 128.303 290.234 128.303Z" fill="url(#paint2_linear_645_1624)"/>
<path d="M271.261 127.462L239.829 127.582V120.377L254.354 108.188C259.057 104.286 261.022 101.524 261.022 97.8612C261.022 93.3581 258.819 90.9564 254.89 90.9564C250.782 90.9564 248.401 93.7784 248.401 98.7619H238.817C238.817 88.7949 245.127 82.3103 254.831 82.3103C264.891 82.3103 270.904 87.7741 270.904 97.2608C270.904 103.325 267.272 108.249 261.796 112.872L255.188 118.456H271.261V127.462Z" fill="url(#paint3_linear_645_1624)"/>
<path d="M196.444 105.487C196.444 91.7369 204.183 82.3103 215.673 82.3103C227.162 82.3103 234.901 91.7369 234.901 105.487C234.901 119.236 227.758 128.363 215.673 128.363C203.588 128.363 196.444 119.236 196.444 105.487ZM205.969 105.487C205.969 115.033 209.541 119.837 215.673 119.837C221.804 119.837 225.376 115.033 225.376 105.487C225.376 95.6397 221.804 90.8363 215.673 90.8363C209.541 90.8363 205.969 95.6397 205.969 105.487Z" fill="url(#paint4_linear_645_1624)"/>
<path d="M192.487 127.462L161.055 127.582V120.377L175.581 108.188C180.284 104.286 182.248 101.524 182.248 97.8612C182.248 93.3581 180.046 90.9564 176.117 90.9564C172.009 90.9564 169.628 93.7784 169.628 98.7619H160.043C160.043 88.7949 166.353 82.3103 176.057 82.3103C186.118 82.3103 192.13 87.7741 192.13 97.2608C192.13 103.325 188.499 108.249 183.022 112.872L176.414 118.456H192.487V127.462Z" fill="url(#paint5_linear_645_1624)"/>
</g>
<defs>
<linearGradient id="paint0_linear_645_1624" x1="0.205078" y1="68.7251" x2="137.448" y2="68.7251" gradientUnits="userSpaceOnUse">
<stop stop-color="#8247FF"/>
<stop offset="1" stop-color="#F5C144"/>
</linearGradient>
<linearGradient id="paint1_linear_645_1624" x1="309.636" y1="9.18264" x2="124.66" y2="94.9423" gradientUnits="userSpaceOnUse">
<stop stop-color="#8247FF"/>
<stop offset="1" stop-color="#F5C144"/>
</linearGradient>
<linearGradient id="paint2_linear_645_1624" x1="307.505" y1="82.2308" x2="150.763" y2="183.501" gradientUnits="userSpaceOnUse">
<stop stop-color="#8247FF"/>
<stop offset="1" stop-color="#F5C144"/>
</linearGradient>
<linearGradient id="paint3_linear_645_1624" x1="307.505" y1="82.2308" x2="150.763" y2="183.501" gradientUnits="userSpaceOnUse">
<stop stop-color="#8247FF"/>
<stop offset="1" stop-color="#F5C144"/>
</linearGradient>
<linearGradient id="paint4_linear_645_1624" x1="307.505" y1="82.2308" x2="150.763" y2="183.501" gradientUnits="userSpaceOnUse">
<stop stop-color="#8247FF"/>
<stop offset="1" stop-color="#F5C144"/>
</linearGradient>
<linearGradient id="paint5_linear_645_1624" x1="307.505" y1="82.2308" x2="150.763" y2="183.501" gradientUnits="userSpaceOnUse">
<stop stop-color="#8247FF"/>
<stop offset="1" stop-color="#F5C144"/>
</linearGradient>
<clipPath id="clip0_645_1624">
<rect width="150.722" height="118.862" fill="white" transform="translate(159.118 9.29492)"/>
</clipPath>
</defs>
</svg>
