<svg width="5157" height="5157" viewBox="0 0 5157 5157" fill="none" xmlns="http://www.w3.org/2000/svg">
<path d="M5156.26 2578.13C5156.26 3771.25 4345.82 4775.05 3245.36 5069.07C3179.62 5086.63 3112.83 5101.66 3045.06 5114.06C2893.65 5141.79 2737.59 5156.26 2578.13 5156.26C2418.67 5156.26 2259.17 5141.49 2106.19 5113.15C2088.27 5109.86 2070.46 5106.37 2052.7 5102.62C1987.01 5089.06 1922.24 5072.97 1858.53 5054.45C1840.97 5049.33 1823.51 5044.07 1806.1 5038.61C1552.47 4959.16 1315.63 4841.55 1102.48 4692.42C1058.46 4661.65 1015.44 4629.56 973.492 4596.11C380.247 4123.82 0 3395.41 0 2578.13C0 1154.25 1154.25 0 2578.13 0C4002.01 0 5156.26 1154.25 5156.26 2578.13Z" fill="url(#paint0_linear_1729_4)"/>
<path d="M3395.06 1642.06C3389.19 1649.4 3385.4 1658.56 3384.69 1668.58L3081.36 1642.52L3151.95 1553.15L3233.98 1497.08L3249.87 1486.2L3395.06 1642.06Z" fill="#110C24"/>
<path d="M3124.24 1475.74V1474.88L3027.02 1379.23C3023.88 1418.35 3026.42 1460.96 3044.63 1491.12C3044.63 1491.12 3080.21 1493.8 3124.24 1475.79V1475.74Z" fill="#110C24"/>
<path d="M3793.03 1417.88C3782.61 1455.88 3771.48 1488.47 3759.94 1516.41L3477.56 1658.1C3477.05 1656.43 3476.5 1654.86 3475.79 1653.29L3576.29 1461.5C3592.94 1449.35 3611.26 1440.24 3630.13 1433.51H3630.19C3707.86 1405.73 3793.03 1417.88 3793.03 1417.88Z" fill="#110C24"/>
<path d="M1739.76 4610.57C1743.05 4619.38 1746.19 4628.08 1749.12 4636.63L1946.28 4713.96C1934.44 4670.14 1922.95 4627.32 1912.33 4587.19L1739.76 4610.57Z" fill="#110C24"/>
<path d="M3072.5 2052.39L2945.23 2174.76L2896.4 2158.92L2941.44 1988.73L3051.2 2015.05C3053.12 2030.18 3061.02 2043.44 3072.5 2052.39Z" fill="#110C24"/>
<path d="M3467.91 2780.24C3467.91 2785.56 3468.77 2790.72 3470.28 2795.53L2919.55 3050.47C2914.94 3045.21 2909.33 3040.96 2902.9 3038.03L3107.04 2460.67C3114.53 2454.6 3121.72 2448.42 3128.65 2442.2L3473.12 2758.13C3469.78 2764.81 3467.91 2772.3 3467.91 2780.24Z" fill="#110C24"/>
<path d="M3077.61 2483.13L2882.99 3033.41H2882.03C2867.75 3033.41 2854.85 3039.44 2845.74 3049.15L2554.56 2859.33C2554.86 2857.06 2555.01 2854.73 2555.01 2852.35C2555.01 2835.5 2547.47 2820.42 2535.63 2810.25L2690.18 2611.52C2703.69 2610.36 2717.31 2609.09 2731.07 2607.62C2732.34 2607.47 2733.65 2607.37 2734.92 2607.22C2883.64 2591.28 2994.98 2542.39 3077.61 2483.13Z" fill="#110C24"/>
<path d="M2532.95 3614.68C2529.16 3614.27 2525.46 3613.87 2521.67 3613.46H2521.62C2507.95 3612 2494.14 3610.53 2480.22 3609.06L2331.14 3380.12C2332.86 3374.46 2333.77 3368.38 2333.77 3362.16C2333.77 3339.13 2321.17 3319.04 2302.5 3308.42L2482.7 2904.94C2486.8 2906.26 2491.1 2907.12 2495.5 2907.47L2532.95 3614.68Z" fill="#110C24"/>
<path d="M2454.31 3606.37C2346.83 3595.13 2232.86 3584.25 2126.04 3579.55H2125.99C2113.74 3578.99 2101.65 3578.54 2089.6 3578.18L2229.83 3407.34C2240.86 3417.66 2255.69 3423.99 2271.98 3423.99C2291.57 3423.99 2309.03 3414.88 2320.36 3400.61L2454.31 3606.37Z" fill="#110C24"/>
<path d="M3493.19 2823.56L3322.35 3317.32C3314.4 3312.01 3304.89 3308.87 3294.62 3308.87C3278.93 3308.87 3264.96 3316.11 3255.85 3327.44L2927.32 3103.66C2930.21 3097.39 2931.78 3090.46 2931.78 3083.12C2931.78 3077.91 2930.97 3072.9 2929.5 3068.19L3480.39 2813.19C3484.03 2817.34 3488.33 2820.83 3493.19 2823.56Z" fill="#110C24"/>
<path d="M3579.99 1681.5C3579.99 1681.5 3625.43 1768.24 3683.02 1889.23L3163.86 2002.89C3163.56 1999.25 3162.9 1995.71 3161.89 1992.27L3428.23 1719.2C3429.49 1719.3 3430.76 1719.35 3432.07 1719.35C3455.5 1719.35 3474.93 1702.45 3478.83 1680.18L3747.04 1545.57C3743.9 1552.15 3740.76 1558.43 3737.63 1564.35C3662.22 1706.6 3579.99 1681.5 3579.99 1681.5Z" fill="#110C24"/>
<path d="M3406.81 1712.11L3152.27 1973.13C3144.22 1962.65 3132.53 1955.06 3119.17 1952.28L3073.78 1662.16L3387.88 1689.13C3391.58 1698.7 3398.26 1706.69 3406.81 1712.11Z" fill="#110C24"/>
<path d="M3851.98 2283.44L3789.99 2373.01C3783.26 2369.57 3775.67 2367.65 3767.57 2367.65C3752.79 2367.65 3739.49 2374.08 3730.38 2384.35L3331.05 2203.59L3706.64 1939.33C3756.03 2045.34 3810.64 2169.68 3851.98 2283.44Z" fill="#110C24"/>
<path d="M3299.9 2181.92C3300.05 2181.47 3300.1 2181.21 3300.1 2181.21L3227.68 2094.88L3102.38 2225.75L2993.99 2190.58L2967.07 2181.82L3091.56 2062.14C3096.56 2063.61 3101.88 2064.37 3107.39 2064.37C3133.41 2064.37 3155.37 2046.81 3162 2022.87L3685.81 1915.44L3299.9 2181.92Z" fill="#110C24"/>
<path d="M3733.91 2453.99L3539.13 2735.46C3532.6 2732.32 3525.32 2730.55 3517.62 2730.55C3505.48 2730.55 3494.3 2734.95 3485.64 2742.24L3143.55 2428.44C3149.47 2422.82 3155.19 2417.15 3160.66 2411.43C3162.58 2409.46 3164.45 2407.49 3166.32 2405.51C3237.17 2330.37 3273.51 2253.8 3289.45 2212.46L3720.15 2402.38C3718.63 2407.18 3717.82 2412.19 3717.82 2417.41C3717.82 2431.88 3723.99 2444.94 3733.91 2453.99Z" fill="#110C24"/>
<path d="M3098.63 1951.67C3075.86 1955.22 3057.54 1972.32 3052.28 1994.48L2946.61 1969.13L2947.07 1967.51L3010.17 1728.86L3018.73 1696.52L3054.4 1669.3L3098.63 1951.67Z" fill="#110C24"/>
<path d="M2002.11 3684.8L2001.6 3684.4L1986.87 3684.95L1986.72 3685.1L1986.62 3684.95L1848.52 3690.06L1995.98 3870.01C2092.79 3766.98 2165.66 3678.37 2165.66 3678.37L2002.51 3684.4L2002.16 3684.85L2002.11 3684.8Z" fill="#110C24"/>
<path d="M1304.95 4126.23L1305.2 4126.84L1341.39 4152.6C1346.25 4147.94 1351.05 4143.44 1355.61 4139.13C1372.61 4123.19 1387.69 4109.58 1401.2 4097.84L1283.8 3641.64C1275.2 3656.06 1265.68 3668.81 1255.11 3679.74C1138.31 3800.94 1030.11 3891.83 1030.11 3891.83C1030.11 3891.83 1029.36 3896.69 1027.99 3905.74C1027.13 3911.31 1026.07 3918.55 1024.85 3927.1L1304.55 4126.38L1304.95 4126.23Z" fill="#110C24"/>
<path d="M1615.83 3239.88C1600.85 3250.46 1591.09 3267.96 1591.09 3287.7H1365.29C1376.77 3165.94 1383.65 3032.25 1398.08 2905.13C1400.76 2881.24 1403.59 2858.97 1406.63 2838.17L1615.83 3239.88Z" fill="#110C24"/>
<path d="M1282.24 4135.35L1021.63 3949.68C1012.16 4016.22 996.73 4132.21 985.344 4254.42L1282.24 4135.4V4135.35Z" fill="#110C24"/>
<path d="M1952.87 4738.26L1757.39 4661.59C1767.46 4694.23 1774.34 4724.54 1776.46 4751.36C1778.74 4779.7 1781.68 4811.23 1784.97 4844.33L1998.32 4904.95C1983.34 4850.35 1967.9 4793.77 1952.93 4738.26H1952.87Z" fill="#110C24"/>
<path d="M1050.74 3063.08C1143.9 3116.01 1279.17 3116.92 1279.17 3116.92L1286.1 3045.11L1151.64 2944.91L1050.74 3063.08Z" fill="#110C24"/>
<path d="M1458.34 3718.05L1445.34 4061.41C1437.19 4067.79 1428.23 4074.97 1418.37 4083.22L1297.93 3615.07C1306.93 3595.89 1314.83 3574.59 1321.76 3551.46C1323.08 3546.91 1324.39 3542.25 1325.66 3537.59L1430.21 3650.34C1427.22 3656.72 1425.55 3663.8 1425.55 3671.34C1425.55 3692.85 1439.22 3711.17 1458.34 3718.05Z" fill="#110C24"/>
<path d="M3612.11 3200.65C3470.72 3355.76 3303.72 3590.16 3265.87 3746.84C3256.15 3786.81 3249.42 3857.41 3244.77 3946.37L3040.98 4111.4C3041.13 4050.52 3041.44 4002.54 3041.99 3974.31C3043.06 3921.07 3041.33 3869.6 3035.06 3823.65C3033.04 3809.13 3030.56 3795.27 3027.57 3782.01L3302.81 3407.63C3326.34 3403.68 3344.31 3383.24 3344.31 3358.54C3344.31 3349.69 3341.98 3341.34 3337.88 3334.15L3512.47 2829.72C3514.14 2829.87 3515.86 2829.97 3517.63 2829.97H3518.24L3612.11 3200.65Z" fill="#110C24"/>
<path d="M2846.95 3118.32L2594.59 3621.13C2594.59 3621.13 2594.18 3621.13 2594.03 3621.13C2580.67 3619.77 2567.06 3618.35 2553.34 3616.88L2515.69 2905.32C2529.56 2901.17 2541.1 2891.71 2548.03 2879.26L2835.21 3066.5C2833.34 3071.71 2832.33 3077.28 2832.33 3083.15C2832.33 3096.91 2837.89 3109.36 2846.95 3118.37V3118.32Z" fill="#110C24"/>
<path d="M1624.95 3340.83L1486.09 3622.76C1482.6 3622 1479 3621.59 1475.31 3621.59C1462.81 3621.59 1451.37 3626.2 1442.62 3633.89L1331.69 3514.26C1334.17 3503.83 1336.55 3493.16 1338.78 3482.17C1349.5 3429.39 1357.15 3370.39 1363.37 3307.94H1594.69C1600.05 3322.46 1611.03 3334.31 1624.95 3340.83Z" fill="#110C24"/>
<path d="M1592.56 4279.46L1829.6 4282.44C1805.06 4211.75 1784.31 4163.22 1795.04 4112.46L1659.87 3882.51C1601.88 3953.66 1549.5 4029.16 1539.43 4079.57C1530.88 4122.38 1555.88 4195.1 1592.56 4279.46Z" fill="#110C24"/>
<path d="M1875.89 3991.43C1892.09 3975.94 1908.13 3960.16 1923.97 3944.32L1677.47 3861.27C1674.28 3865.07 1671.15 3868.86 1668.01 3872.66L1801.45 4090.82C1812.94 4061.11 1836.07 4029.48 1875.94 3991.43H1875.89Z" fill="#110C24"/>
<path d="M1903.58 3591.13C1812.49 3613.75 1762.84 3662.12 1720.84 3723.76C1718.67 3726.9 1716.59 3730.09 1714.46 3733.28L1716.59 3723.91L1524.19 3680.29C1524.75 3677.41 1525 3674.37 1525 3671.33C1525 3654.84 1516.95 3640.16 1504.55 3631.15L1644.93 3346.1C1646.5 3346.25 1648.07 3346.3 1649.69 3346.3C1660.62 3346.3 1670.84 3343.31 1679.6 3338.1L1903.58 3591.13Z" fill="#110C24"/>
<path d="M1861.58 4389.63C1853.78 4357.15 1845.08 4328.55 1836.53 4302.8L1601.52 4299.81C1603.24 4303.76 1605.01 4307.65 1606.78 4311.6L1874.94 4443.63C1869.77 4423.24 1865.27 4405.07 1861.58 4389.58V4389.63Z" fill="#110C24"/>
<path d="M1907.12 4567.45C1897.76 4532.03 1889.11 4498.93 1881.57 4469.48L1620.09 4340.74C1657.74 4422.62 1700.86 4510.78 1732.43 4591.14L1907.17 4567.45H1907.12Z" fill="#110C24"/>
<path d="M1937.59 3930.63C1952.72 3915.3 1967.55 3899.97 1981.92 3884.84L1827.93 3696.89C1808.44 3716.52 1746.45 3779.83 1684.71 3852.65L1937.59 3930.68V3930.63Z" fill="#110C24"/>
<path d="M2015.26 3021.71L1698.42 3255.05C1691.49 3244.68 1681.31 3236.68 1669.37 3232.43L1688.6 2550.93C1700.85 2550.07 1713.6 2549.36 1726.96 2548.71C1727.72 2548.66 1728.43 2548.66 1729.19 2548.61H1730.15L2005.49 2958.05C2000.83 2965.64 1998.1 2974.6 1998.1 2984.22C1998.1 2999.19 2004.73 3012.6 2015.26 3021.71Z" fill="#110C24"/>
<path d="M2464.88 2895.23L2283.51 3301.43H2283.46C2279.72 3300.67 2275.92 3300.32 2271.98 3300.32C2237.82 3300.32 2210.14 3328 2210.14 3362.16C2210.14 3372.53 2212.67 3382.3 2217.22 3390.85L2063.94 3577.59C2057.77 3577.43 2051.49 3577.28 2045.42 3577.18C2013.54 3576.78 1984.89 3578.19 1958.98 3581.28C1947.55 3582.65 1936.67 3584.32 1926.24 3586.24L1694.98 3324.96C1703.33 3314.79 1708.34 3301.84 1708.34 3287.72C1708.34 3283.01 1707.78 3278.51 1706.72 3274.11L2035.14 3032.31C2039.19 3033.38 2043.44 3033.93 2047.8 3033.93C2068.8 3033.93 2086.76 3020.93 2094.05 3002.51L2446.97 2868.76C2450.21 2879.28 2456.53 2888.44 2464.88 2895.23Z" fill="#110C24"/>
<path d="M3613.86 3712.69L3663.85 3539.93L3467.3 3492.87L3357.09 3635.98C3357.09 3635.98 3499.39 3687.7 3613.91 3712.69H3613.86Z" fill="#110C24"/>
<path d="M2085.85 2584.28L2048.76 2934.47H2047.79C2037.42 2934.47 2027.81 2937.66 2019.81 2943.12L1754.18 2548.05C1766.94 2547.95 1779.84 2548.15 1793.05 2548.65C1880.04 2552.2 1976.29 2568.34 2085.85 2584.28Z" fill="#110C24"/>
<path d="M1288.36 3021.59L1308.71 2810.92C1284.62 2873.87 1227.89 2910.35 1167.42 2931.51L1288.31 3021.64L1288.36 3021.59Z" fill="#110C24"/>
<path d="M2662.93 2613.64L2517.94 2800.12C2512.28 2798.1 2506.15 2797.03 2499.78 2797.03C2470.73 2797.03 2446.89 2819.45 2444.72 2847.99L2097.37 2979.62C2095.7 2961.6 2084.41 2946.32 2068.67 2939.08L2105.92 2587.17C2119.02 2589.05 2132.23 2590.92 2145.74 2592.74C2292.14 2612.68 2461.77 2628.42 2662.93 2613.64Z" fill="#110C24"/>
<path d="M1668.35 2552.51L1649.23 3229.05C1644.01 3229.1 1638.95 3229.81 1634.15 3231.17L1411.99 2804.62C1415.38 2785.14 1418.97 2767.07 1423.02 2750.48C1458.65 2602.1 1521.8 2565.16 1668.35 2552.51Z" fill="#110C24"/>
<path d="M3125.34 1447.55L3130.71 1311.22C3107.94 1296.19 3079.95 1283.95 3046.15 1278.94C3046.15 1278.94 3035.77 1311.73 3029.85 1353.63L3125.34 1447.55Z" fill="#110C24"/>
<path d="M3332.65 1400.93L3361.29 1429.57L3556.02 1234.84V632.74C3581.17 624.289 3599.34 600.555 3599.34 572.52C3599.34 537.4 3570.9 508.959 3535.78 508.959C3500.66 508.959 3472.22 537.4 3472.22 572.52C3472.22 600.555 3490.39 624.289 3515.54 632.74V1218.04L3455.42 1278.16V846.192C3480.57 837.741 3498.74 814.007 3498.74 785.972C3498.74 750.852 3470.3 722.412 3435.18 722.412C3400.06 722.412 3371.62 750.852 3371.62 785.972C3371.62 814.007 3389.79 837.741 3414.94 846.192V1318.64L3332.65 1400.93Z" fill="#110C24"/>
<path d="M3511.1 1542.34L3462.37 1635.3C3454.17 1628.47 3443.59 1624.37 3432.05 1624.37C3424.46 1624.37 3417.28 1626.14 3410.9 1629.33L3273.41 1481.81L3309.13 1480.65L3464.44 1475.69L3511.1 1542.34Z" fill="#110C24"/>
<path d="M3144.87 1465.92C3167.8 1453.47 3191.78 1434.95 3213.49 1407.42C3213.49 1407.42 3194.82 1362.99 3150.39 1325.89L3144.87 1465.92Z" fill="#110C24"/>
<path d="M1708.33 3742.8C1678.37 3789.91 1650.74 3843.45 1612.08 3898.51C1561.02 3971.23 1537.49 3993.95 1507.83 4015.86C1495.74 4024.77 1482.58 4033.62 1466.18 4045.67L1478.48 3720.93C1494.22 3719.92 1507.98 3711.57 1516.38 3699.28L1708.33 3742.8Z" fill="#110C24"/>
<path d="M2882.03 3638.24C2880 3638.34 2877.93 3638.39 2875.85 3638.54C2827.02 3642.29 2748.18 3636.52 2653.49 3627.16C2641.3 3625.99 2628.8 3624.68 2616.1 3623.41L2864.01 3129.46L2867.76 3121.97L2868.01 3130.82L2882.03 3638.24Z" fill="#110C24"/>
<path d="M3044.02 4937.28C3044.47 5009.7 3044.83 5071.08 3045.13 5114.05C3112.89 5101.65 3179.69 5086.62 3245.43 5069.06C3244.97 5050.54 3244.42 5029.44 3243.86 5006.11L3044.02 4937.28Z" fill="#110C24"/>
<path d="M3721.94 4068.33L3588.85 4240.84L3548.87 4292.66C3605.9 4246.92 3666.37 4188.67 3721.94 4115.85V4068.33Z" fill="#110C24"/>
<path d="M2052.71 5102.62C1987.02 5089.06 1922.25 5072.97 1858.54 5054.44C1840.98 5049.33 1823.52 5044.07 1806.11 5038.6C1799.58 4982.64 1792.9 4922.57 1787.13 4865.99L2004.53 4927.78C2021.89 4991.14 2038.49 5051.15 2052.71 5102.62Z" fill="#110C24"/>
<path d="M1033.37 3052.25L1126.13 2943.6C1044.2 2963.49 967.484 2959.84 967.484 2959.84C975.935 3000.07 1000.93 3029.98 1033.37 3052.25Z" fill="#110C24"/>
<path d="M3698.85 505.636V1170.74L3468.64 1400.94L3497.29 1429.59L3914.32 1012.55V599.761C3939.48 591.31 3957.64 567.577 3957.64 539.541C3957.64 504.421 3929.2 475.981 3894.08 475.981C3858.96 475.981 3830.52 504.421 3830.52 539.541C3830.52 567.577 3848.69 591.31 3873.84 599.761V995.798L3739.33 1130.26V505.636C3764.48 497.185 3782.65 473.451 3782.65 445.416C3782.65 410.296 3754.21 381.855 3719.09 381.855C3683.97 381.855 3655.53 410.296 3655.53 445.416C3655.53 473.451 3673.7 497.185 3698.85 505.636Z" fill="#110C24"/>
<path d="M1123.04 4492.16L977.755 4346.88C971.278 4438.62 968.393 4527.74 973.504 4596.11C1015.46 4629.56 1058.47 4661.64 1102.5 4692.41C1100.52 4637.3 1104.07 4567.16 1122.99 4492.16H1123.04Z" fill="#110C24"/>
<path d="M1301.83 4149.33L983.323 4277.06C983.02 4280.29 982.767 4283.53 982.463 4286.77C981.502 4297.96 980.591 4309.14 979.73 4320.32L1129.17 4469.76C1131.85 4460.6 1134.68 4451.39 1137.82 4442.13C1163.73 4366.17 1206.9 4287.68 1276.83 4216.48C1294.85 4198.16 1311.35 4181.77 1326.58 4166.99L1301.83 4149.38V4149.33Z" fill="#110C24"/>
<path d="M3480.79 3475.25L3669.45 3520.44L3683.56 3471.51L3570.66 3358.55L3480.79 3475.25Z" fill="#110C24"/>
<path d="M3679.52 3843.76C3668.64 3875.49 3654.06 3911.47 3634.73 3948.96L3868.98 3751.1L3679.52 3843.76Z" fill="#110C24"/>
<path d="M3312.02 4253.9V4434.26C3312.02 4434.26 3377.5 4410.58 3465.75 4352.94L3312.02 4253.95V4253.9Z" fill="#110C24"/>
<path d="M3689.13 3525.15L3752.34 3540.28L3699.91 3487.85L3689.13 3525.15Z" fill="#110C24"/>
<path d="M3279.03 3405.81L3021.04 3756.76C3005.86 3705.95 2981.32 3667.49 2943.11 3649.43C2930.91 3643.66 2917.35 3640.01 2902.32 3638.65L2888.25 3132.44C2898.63 3131.18 2907.99 3126.68 2915.38 3120.05L3246.59 3345.59C3245.48 3349.69 3244.87 3354.04 3244.87 3358.55C3244.87 3380.56 3259.19 3399.23 3279.03 3405.81Z" fill="#110C24"/>
<path d="M3041.39 4407.54C3041.39 4416.1 3041.44 4424.7 3041.49 4433.35L3186.47 4543.52L3236.17 4475.71C3236.06 4457.04 3236.01 4438.36 3236.01 4419.64L3041.13 4299.86C3041.23 4334.57 3041.34 4370.6 3041.44 4407.44L3041.39 4407.54Z" fill="#110C24"/>
<path d="M3816.86 2423.52C3817.12 2421.5 3817.27 2419.48 3817.27 2417.4C3817.27 2405.36 3812.97 2394.32 3805.88 2385.72L3860.38 2306.93C3863.27 2315.18 3866.1 2323.33 3868.84 2331.42C3870.25 2335.62 3871.62 2339.82 3872.93 2344.07C3883.76 2377.93 3892.22 2413 3898.49 2448.62C3899.25 2452.88 3899.96 2457.18 3900.67 2461.43L3816.86 2423.52Z" fill="#110C24"/>
<path d="M3235.97 4376.69C3236.12 4243.25 3237.84 4112.43 3242.19 4002.52C3242.6 3992.6 3243 3983.04 3243.41 3973.52L3040.93 4137.48C3040.93 4146.59 3040.93 4155.9 3040.93 4165.42C3040.93 4194.11 3040.93 4224.73 3040.98 4256.86C3040.98 4263.24 3040.98 4269.66 3040.98 4276.09L3235.92 4395.87C3235.92 4389.45 3235.92 4383.07 3235.92 4376.64L3235.97 4376.69Z" fill="#110C24"/>
<path d="M3236.83 4581.83C3236.78 4574.95 3236.67 4568.11 3236.62 4561.23V4555.97C3236.52 4540.64 3236.42 4525.25 3236.32 4509.77L3202.57 4555.82L3236.83 4581.83Z" fill="#110C24"/>
<path d="M3779.71 3567.65L3683.51 3544.62L3633.71 3716.78C3655.67 3721.08 3676.17 3724.12 3693.83 3725.33L3822.16 3610.05L3779.76 3567.65H3779.71Z" fill="#110C24"/>
<path d="M3041.57 4458.86C3041.93 4552.02 3042.38 4648.48 3042.89 4739.36L3174.46 4559.87L3041.57 4458.86Z" fill="#110C24"/>
<path d="M3836.44 3624.37L3706.9 3740.76C3704.06 3756.3 3698.39 3783.17 3688.12 3816.97L3904.81 3711.01C3905.88 3706 3906.94 3700.99 3907.9 3695.93L3836.39 3624.42L3836.44 3624.37Z" fill="#110C24"/>
<path d="M3844 2958.32C3790.76 3052.85 3700.38 3106.08 3628.47 3182.9L3538.04 2825.63C3555.35 2817.84 3567.34 2800.43 3567.34 2780.24C3567.34 2767.84 3562.78 2756.45 3555.24 2747.8L3751.39 2464.36C3756.45 2466.13 3761.92 2467.09 3767.58 2467.09C3785.75 2467.09 3801.69 2457.33 3810.35 2442.75L3904.22 2485.26C3911.51 2488.55 3911.1 2552.92 3911.61 2562.18C3918.94 2692.24 3909.13 2842.63 3844 2958.32Z" fill="#110C24"/>
<path d="M3894.49 3756L3742.12 3896.43V4088.28C3805.53 3998.86 3860.74 3889.2 3894.49 3756Z" fill="#110C24"/>
<path d="M3721.93 4035.2V3901.8L3605.79 3999.88C3563.53 4067.59 3504.73 4135.95 3423.25 4189.6L3577.09 4222.84L3721.87 4035.15L3721.93 4035.2Z" fill="#110C24"/>
<path d="M3243.15 4977.77C3240.97 4878.93 3238.49 4747.82 3237.07 4607.44L3190.62 4572.12L3043.11 4773.32C3043.21 4790.78 3043.31 4807.99 3043.41 4824.84C3043.56 4853.99 3043.71 4882.22 3043.86 4909.1C3043.86 4911.37 3043.86 4913.6 3043.86 4915.83L3243.3 4984.55C3243.25 4982.27 3243.2 4980.09 3243.15 4977.77Z" fill="#110C24"/>
<path d="M3398.61 4205.03C3376.7 4217.93 3353.32 4229.82 3328.27 4240.35L3484.09 4340.7C3485.6 4339.69 3487.12 4338.57 3488.69 4337.51L3563.44 4240.65L3398.61 4205.03Z" fill="#110C24"/>
<path d="M2867.74 3121.98L2863.99 3129.47C2865.31 3129.98 2866.62 3130.44 2867.99 3130.84L2867.74 3121.98Z" fill="#FCF7FF"/>
<defs>
<linearGradient id="paint0_linear_1729_4" x1="0" y1="2578.13" x2="5156.26" y2="2578.13" gradientUnits="userSpaceOnUse">
<stop stop-color="#8247FF"/>
<stop offset="1" stop-color="#F5C144"/>
</linearGradient>
</defs>
</svg>
